<svg viewBox="0 0 20 20" fill="none" xmlns="http://www.w3.org/2000/svg">
  <path fill-rule="evenodd" clip-rule="evenodd" d="M10 1.75C5.44321 1.75 1.75 5.44321 1.75 10C1.75 14.5568 5.44321 18.25 10 18.25C14.5568 18.25 18.25 14.5568 18.25 10C18.25 5.44321 14.5568 1.75 10 1.75ZM10 0.25C15.3852 0.25 19.75 4.61479 19.75 10C19.75 15.3852 15.3852 19.75 10 19.75C4.61479 19.75 0.25 15.3852 0.25 10C0.25 4.61479 4.61479 0.25 10 0.25ZM7.81066 9.25L9.53033 7.53033C9.82322 7.23744 9.82322 6.76256 9.53033 6.46967C9.23744 6.17678 8.76256 6.17678 8.46967 6.46967L5.46967 9.46967C5.39776 9.54158 5.34351 9.62445 5.30691 9.71291C5.27024 9.80134 5.25 9.89831 5.25 10C5.25 10.1017 5.27024 10.1987 5.30691 10.2871C5.34351 10.3755 5.39776 10.4584 5.46967 10.5303L8.46967 13.5303C8.76256 13.8232 9.23744 13.8232 9.53033 13.5303C9.82322 13.2374 9.82322 12.7626 9.53033 12.4697L7.81066 10.75H14C14.4142 10.75 14.75 10.4142 14.75 10C14.75 9.58579 14.4142 9.25 14 9.25H7.81066Z" fill="currentColor"/>
</svg>
