<svg width="20" height="20" viewBox="0 0 20 20" fill="none" xmlns="http://www.w3.org/2000/svg">
  <path fill-rule="evenodd" clip-rule="evenodd" d="M16.4641 4.94805C16.4831 4.83825 16.4537 4.72727 16.3835 4.6436C16.3133 4.55992 16.2091 4.5117 16.0977 4.51131L10.2296 4.49046C10.0359 4.48977 9.86677 4.6318 9.83393 4.82266C9.80108 5.01352 9.9147 5.19425 10.0997 5.2454L13.6217 6.21926L3.70167 14.5432C3.45281 14.752 3.41457 15.1162 3.61628 15.3566C3.81798 15.5969 4.18325 15.6225 4.43211 15.4137L14.3522 7.08977L14.6997 10.7274C14.7179 10.9185 14.8762 11.0618 15.0698 11.0626C15.2635 11.0634 15.4327 10.9214 15.4657 10.7306L16.4641 4.94805Z" fill="white"/>
</svg>