<svg viewBox="0 0 60 60" fill="none" xmlns="http://www.w3.org/2000/svg">
<path d="M13.041 29.375H20.8635C23.791 29.375 26.166 27 26.166 24.0725V24.0725C26.166 22.665 25.6085 21.3175 24.6135 20.3225L20.011 15.72" stroke="currentColor" stroke-width="3" stroke-linecap="round" stroke-linejoin="round"/>
<path d="M41.7139 41.4449L38.3814 36.4474C37.7789 35.5424 36.7639 34.9999 35.6764 34.9999V34.9999C34.4439 34.9999 33.3189 34.3049 32.7689 33.2024L32.5189 32.7049C32.0614 31.7899 32.0614 30.7124 32.5189 29.7974L34.6439 25.5499C35.1939 24.4474 36.3214 23.7524 37.5514 23.7524H45.8164" stroke="currentColor" stroke-width="3" stroke-linecap="round" stroke-linejoin="round"/>
<path d="M29.916 12.5C39.2585 12.5 46.791 20.0325 46.791 29.375C46.791 38.7175 39.2585 46.25 29.916 46.25" stroke="currentColor" stroke-width="3" stroke-linecap="round" stroke-linejoin="round"/>
<path d="M29.916 46.25C20.5735 46.25 13.041 38.7175 13.041 29.375C13.041 20.0325 20.5735 12.5 29.916 12.5" stroke="currentColor" stroke-width="3" stroke-linecap="round" stroke-linejoin="round"/>
<path d="M11.3916 13.5576C12.6416 12.0951 14.0641 10.7926 15.6216 9.6626" stroke="currentColor" stroke-width="3" stroke-linecap="round" stroke-linejoin="round"/>
<path d="M43.4584 49.6401C39.5834 52.2326 34.9284 53.7501 29.9159 53.7501C27.4459 53.7501 25.0659 53.3751 22.8184 52.6926" stroke="currentColor" stroke-width="3" stroke-linecap="round" stroke-linejoin="round"/>
<path d="M14.6115 48.3325C11.1415 45.5275 8.47648 41.7875 6.95898 37.5" stroke="currentColor" stroke-width="3" stroke-linecap="round" stroke-linejoin="round"/>
<path d="M6.95875 21.25C6.05625 23.795 5.54125 26.5225 5.54125 29.375" stroke="currentColor" stroke-width="3" stroke-linecap="round" stroke-linejoin="round"/>
<path d="M50.1285 42.9175C52.7385 39.0425 54.291 34.4 54.291 29.375C54.291 15.9125 43.3785 5 29.916 5" stroke="currentColor" stroke-width="3" stroke-linecap="round" stroke-linejoin="round"/>
</svg>
