<svg viewBox="0 0 60 60" fill="none" xmlns="http://www.w3.org/2000/svg">
<circle cx="29.8838" cy="11.211" r="4.07034" stroke="currentColor" stroke-width="3"/>
<path fill-rule="evenodd" clip-rule="evenodd" d="M28.3842 7.49849V0.999756H31.3842V7.49849H28.3842ZM14.1684 10.4764L15.0282 9.71205H18.7435H25.7064V12.7121H18.7435H13.8985L21.3738 33.9578H19.4558H18.1935L11.8319 15.8774L5.9144 33.9578H5.03125H2.75781L8.91457 15.1464L9.99063 14.1899L14.1684 10.4764ZM2.19271 35.6844L1.99902 36.2762L2.35495 36.3927C2.29168 36.1586 2.23757 35.9223 2.19271 35.6844ZM28.3842 50.097V15.854H31.3842V50.097H36.3829V53.097H23.8496V50.097H28.3842ZM41.0248 58.2032H18.7435V55.2032H41.0248V58.2032Z" fill="currentColor"/>
<mask id="path-3-inside-1_9358_8110" fill="white">
<path d="M57.7364 35.814C57.7364 37.0942 57.4843 38.3618 56.9944 39.5445C56.5045 40.7271 55.7865 41.8018 54.8813 42.707C53.9761 43.6122 52.9015 44.3302 51.7188 44.8201C50.5361 45.31 49.2685 45.5621 47.9883 45.5621C46.7082 45.5621 45.4406 45.31 44.2579 44.8201C43.0752 44.3302 42.0006 43.6122 41.0954 42.707C40.1902 41.8018 39.4722 40.7271 38.9823 39.5445C38.4924 38.3618 38.2402 37.0942 38.2402 35.814L47.9883 35.814H57.7364Z"/>
</mask>
<path d="M57.7364 35.814C57.7364 37.0942 57.4843 38.3618 56.9944 39.5445C56.5045 40.7271 55.7865 41.8018 54.8813 42.707C53.9761 43.6122 52.9015 44.3302 51.7188 44.8201C50.5361 45.31 49.2685 45.5621 47.9883 45.5621C46.7082 45.5621 45.4406 45.31 44.2579 44.8201C43.0752 44.3302 42.0006 43.6122 41.0954 42.707C40.1902 41.8018 39.4722 40.7271 38.9823 39.5445C38.4924 38.3618 38.2402 37.0942 38.2402 35.814L47.9883 35.814H57.7364Z" stroke="currentColor" stroke-width="6" mask="url(#path-3-inside-1_9358_8110)"/>
<mask id="path-4-inside-2_9358_8110" fill="white">
<path d="M21.5304 35.814C21.5304 37.0942 21.2782 38.3618 20.7884 39.5445C20.2985 40.7271 19.5804 41.8018 18.6752 42.707C17.77 43.6122 16.6954 44.3302 15.5127 44.8201C14.33 45.31 13.0624 45.5621 11.7823 45.5621C10.5021 45.5621 9.23454 45.31 8.05184 44.8201C6.86915 44.3302 5.79453 43.6122 4.88933 42.707C3.98414 41.8018 3.2661 40.7271 2.77621 39.5445C2.28632 38.3618 2.03418 37.0942 2.03418 35.814L11.7823 35.814H21.5304Z"/>
</mask>
<path d="M21.5304 35.814C21.5304 37.0942 21.2782 38.3618 20.7884 39.5445C20.2985 40.7271 19.5804 41.8018 18.6752 42.707C17.77 43.6122 16.6954 44.3302 15.5127 44.8201C14.33 45.31 13.0624 45.5621 11.7823 45.5621C10.5021 45.5621 9.23454 45.31 8.05184 44.8201C6.86915 44.3302 5.79453 43.6122 4.88933 42.707C3.98414 41.8018 3.2661 40.7271 2.77621 39.5445C2.28632 38.3618 2.03418 37.0942 2.03418 35.814L11.7823 35.814H21.5304Z" stroke="currentColor" stroke-width="6" mask="url(#path-4-inside-2_9358_8110)"/>
<path fill-rule="evenodd" clip-rule="evenodd" d="M47.9206 11.4035L46.5385 10.175H41.4893H34.5264V13.175H41.4893H46.3107L38.4161 34.8851H40.3105H41.6083L48.3369 16.3814L54.0562 34.8851H54.7351H57.1963L50.7027 13.8765L47.9206 11.4035ZM57.6291 36.2856C57.6009 36.4713 57.5671 36.6561 57.5277 36.8398L57.7766 36.7628L57.6291 36.2856Z" fill="currentColor"/>
</svg>
