<svg viewBox="0 0 60 60" fill="none" xmlns="http://www.w3.org/2000/svg">
<path d="M54 51.1291H6" stroke="currentColor" stroke-width="3" stroke-linecap="round" stroke-linejoin="round"/>
<path d="M47.9832 44.1614V51.1291" stroke="currentColor" stroke-width="3" stroke-linecap="round" stroke-linejoin="round"/>
<rect x="42" y="27.9033" width="12" height="16.2581" rx="6" stroke="currentColor" stroke-width="3" stroke-linecap="round" stroke-linejoin="round"/>
<path fill-rule="evenodd" clip-rule="evenodd" d="M22.8004 11.645H27.6004C28.9259 11.645 30.0004 12.6849 30.0004 13.9676V18.6128H20.4004V13.9676C20.4004 12.6849 21.4749 11.645 22.8004 11.645Z" stroke="currentColor" stroke-width="3" stroke-linecap="round" stroke-linejoin="round"/>
<path d="M25.2 7V11.6452" stroke="currentColor" stroke-width="3" stroke-linecap="round" stroke-linejoin="round"/>
<path d="M15.5996 51.1289V20.9354C15.5996 19.6526 16.6741 18.6128 17.9996 18.6128H32.3996C33.7251 18.6128 34.7996 19.6526 34.7996 20.9354V51.1289" stroke="currentColor" stroke-width="3" stroke-linecap="round" stroke-linejoin="round"/>
<path d="M21.5996 39.5163H28.7996" stroke="currentColor" stroke-width="3" stroke-linecap="round" stroke-linejoin="round"/>
<path d="M21.5996 32.5485H28.7996" stroke="currentColor" stroke-width="3" stroke-linecap="round" stroke-linejoin="round"/>
<path d="M21.5996 25.5807H28.7996" stroke="currentColor" stroke-width="3" stroke-linecap="round" stroke-linejoin="round"/>
<path d="M25.2 47.6453V51.1291" stroke="currentColor" stroke-width="3" stroke-linecap="round" stroke-linejoin="round"/>
<path d="M15.6004 32.5483H10.8004C9.47491 32.5483 8.40039 33.5882 8.40039 34.8709V51.129" stroke="currentColor" stroke-width="3" stroke-linecap="round" stroke-linejoin="round"/>
</svg>
