<svg viewBox="0 0 60 60" xmlns="http://www.w3.org/2000/svg">
<g clip-path="url(#clip0_8930_4899)">
<path d="M30.3015 15.332C26.8819 15.3593 23.6126 16.7418 21.2108 19.1761C18.809 21.6104 17.4707 24.898 17.4895 28.3176C17.4895 31.7852 19.1426 34.5707 20.7173 36.9141C22.0149 38.7904 22.9499 40.8931 23.4739 43.1135L26.9208 46.0726H33.8517L37.1869 43.2085C37.7091 40.9724 38.6243 38.8467 39.8898 36.9306C41.543 34.4509 43.1053 31.6818 43.1053 28.3011C43.1196 24.8857 41.7805 21.6037 39.3809 19.1731C36.9814 16.7426 33.7168 15.3615 30.3015 15.332ZM37.1828 35.0998C35.6311 37.4366 34.5242 40.0399 33.9178 42.7787H26.7554C26.1745 40.0171 25.0507 37.3985 23.4491 35.075C22.0935 33.0457 20.771 30.8511 20.771 28.3011C20.7446 27.032 20.9717 25.7704 21.4391 24.5903C21.9065 23.4101 22.6047 22.3351 23.4929 21.4282C24.3811 20.5213 25.4414 19.8009 26.6115 19.309C27.7817 18.8172 29.0383 18.5638 30.3077 18.5638C31.577 18.5638 32.8336 18.8172 34.0038 19.309C35.174 19.8009 36.2343 20.5213 37.1224 21.4282C38.0106 22.3351 38.7089 23.4101 39.1763 24.5903C39.6437 25.7704 39.8708 27.032 39.8444 28.3011C39.8403 30.9255 38.4681 33.1904 37.1828 35.0998Z" />
<path d="M27.8049 47.251H24.5068V50.5325H24.9863H35.7814H36.0955V47.251H32.9628H27.8049Z" />
<path d="M34.5377 51.7185H26.0693V55H34.5377V51.7185Z" />
<path d="M32.0247 5H28.7432V11.7077H32.0247V5Z" />
<path d="M16.0167 10.0386L13.5029 12.1479L17.3922 16.783L19.906 14.6736L16.0167 10.0386Z" />
<path d="M6.56886 23.6846L5.99902 26.9163L11.9618 27.9677L12.5316 24.736L6.56886 23.6846Z" />
<path d="M14.3051 36.6902L9.06152 39.7175L10.7023 42.5594L15.9458 39.5321L14.3051 36.6902Z" />
<path d="M45.1886 37.0712L43.5479 39.9131L48.7914 42.9404L50.4322 40.0986L45.1886 37.0712Z" />
<path d="M53.6327 24.3619L47.6699 25.4133L48.2398 28.645L54.2025 27.5936L53.6327 24.3619Z" />
<path d="M44.5904 10.4822L40.7012 15.1172L43.215 17.2265L47.1042 12.5915L44.5904 10.4822Z" />
</g>
<defs>
<clipPath id="clip0_8930_4899">
<rect width="48.2022" height="50" fill="white" transform="translate(6 5)"/>
</clipPath>
</defs>
</svg>
