<svg viewBox="0 0 60 60" fill="none" xmlns="http://www.w3.org/2000/svg">
<path d="M39.5 6V16" stroke="currentColor" stroke-width="3" stroke-linecap="square" stroke-linejoin="round"/>
<path d="M19.5 6V16" stroke="currentColor" stroke-width="3" stroke-linecap="square" stroke-linejoin="round"/>
<path d="M7 11H52L52.0001 53.5H7.00003L7 11Z" stroke="currentColor" stroke-width="3" stroke-linecap="round"/>
<rect x="16" y="24" width="3" height="3" fill="currentColor"/>
<rect x="24" y="24" width="3" height="3" fill="currentColor"/>
<rect x="32" y="24" width="3" height="3" fill="currentColor"/>
<rect x="40" y="24" width="3" height="3" fill="currentColor"/>
<rect x="16" y="32" width="3" height="3" fill="currentColor"/>
<rect x="24" y="32" width="3" height="3" fill="currentColor"/>
<rect x="32" y="32" width="3" height="3" fill="currentColor"/>
<rect x="40" y="32" width="3" height="3" fill="currentColor"/>
<rect x="16" y="40" width="3" height="3" fill="currentColor"/>
<rect x="24" y="40" width="3" height="3" fill="currentColor"/>
<rect x="32" y="40" width="3" height="3" fill="currentColor"/>
<rect x="40" y="40" width="3" height="3" fill="currentColor"/>
</svg>
