<svg width="13" height="7" viewBox="0 0 13 7" fill="none" xmlns="http://www.w3.org/2000/svg">
<path d="M6.15387 6.53839C5.95617 6.53878 5.76457 6.46992 5.61233 6.34378L0.535411 2.11301C0.362613 1.96939 0.253946 1.763 0.233317 1.53925C0.212688 1.31551 0.281786 1.09273 0.425411 0.919932C0.569036 0.747134 0.775423 0.638467 0.999168 0.617838C1.22291 0.597209 1.44569 0.666307 1.61849 0.809932L6.15387 4.6007L10.6893 0.945318C10.7758 0.875031 10.8754 0.822543 10.9823 0.79087C11.0892 0.759197 11.2013 0.748963 11.3122 0.760758C11.423 0.772553 11.5305 0.806142 11.6283 0.859597C11.7262 0.913052 11.8125 0.985318 11.8823 1.07224C11.9598 1.15924 12.0185 1.26131 12.0547 1.37205C12.0909 1.48279 12.1039 1.59981 12.0928 1.71579C12.0816 1.83177 12.0467 1.9442 11.9901 2.04604C11.9335 2.14788 11.8565 2.23693 11.7639 2.30763L6.68695 6.39455C6.53034 6.50075 6.34265 6.5514 6.15387 6.53839Z" fill="white"/>
</svg>
