<svg viewBox="0 0 60 60" xmlns="http://www.w3.org/2000/svg">
<rect y="50.8516" width="60" height="3" />
<rect x="4" y="43.8516" width="52" height="3" />
<g clip-path="url(#clip0_9192_8112)">
<path d="M51.3151 38.1712V31.7721C51.3151 30.7605 50.9132 29.7904 50.198 29.0751C49.4827 28.3599 48.5126 27.958 47.501 27.958C46.4895 27.958 45.5193 28.3599 44.8041 29.0751C44.0888 29.7904 43.687 30.7605 43.687 31.7721V38.1226C44.5039 38.0749 45.2853 38.0441 46.0312 38.03V31.7721C46.0312 31.3823 46.186 31.0084 46.4617 30.7328C46.7373 30.4571 47.1112 30.3023 47.501 30.3023C47.8908 30.3023 48.2647 30.4571 48.5403 30.7328C48.816 31.0084 48.9708 31.3823 48.9708 31.7721V38.0429C49.8124 38.0693 50.5936 38.1138 51.3151 38.1712ZM13.2372 32.2632C11.3571 32.2656 9.53294 31.6236 8.06889 30.444C6.60484 29.2644 5.58937 27.6186 5.19178 25.781C4.79419 23.9434 5.03852 22.025 5.88402 20.3457C6.72952 18.6665 8.1251 17.3277 9.83808 16.5528C9.58633 15.8011 9.45326 15.0147 9.44367 14.222C9.44599 12.0425 10.3127 9.95287 11.8537 8.41154C13.3947 6.87021 15.4842 6.00304 17.6637 6.00024C21.0775 6.00024 23.8958 7.78068 25.15 10.6301C25.1969 10.6301 25.2391 10.6301 25.2742 10.6301C27.7826 10.6278 30.2125 11.5046 32.1416 13.1079L42.3109 9.9151V18.7411H55.0002V38.6336C54.3368 38.5164 53.5556 38.3992 52.656 38.2984V26.0639H42.3455V38.2128C41.5812 38.2726 40.7883 38.348 39.9667 38.4391V13.1056L33.925 15.0027C35.1198 16.6064 35.8414 18.5128 36.0079 20.5057H37.3663V23.9752H35.7306C35.083 26.671 33.4153 29.0107 31.0783 30.5025C28.7413 31.9942 25.9169 32.5218 23.199 31.9743C23.4201 31.0054 23.751 30.065 24.1853 29.1712C25.2513 29.3208 26.3367 29.2495 27.3739 28.9616C28.4111 28.6738 29.378 28.1756 30.2143 27.498C31.0507 26.8204 31.7387 25.9779 32.2355 25.023C32.7323 24.0681 33.0272 23.0211 33.102 21.9473C33.1768 20.8735 33.0298 19.7958 32.6701 18.7812C32.3104 17.7667 31.7458 16.837 31.0114 16.05C30.277 15.263 29.3885 14.6356 28.4012 14.2068C27.4139 13.778 26.3489 13.557 25.2725 13.5574C25.1805 13.5574 24.8446 13.5873 24.5188 13.616L22.6792 12.4035C22.0451 10.2878 20.0958 8.92877 17.6619 8.92877C16.259 8.93032 14.914 9.48831 13.922 10.4803C12.93 11.4723 12.372 12.8174 12.3704 14.2203C12.4122 15.0982 12.6527 15.9553 13.0737 16.7268L13.1012 16.7813L12.119 18.8208L11.1925 19.1566C10.5503 19.4221 9.96678 19.8115 9.47514 20.3026C8.98349 20.7936 8.59338 21.3767 8.32707 22.0185C7.78924 23.3147 7.78835 24.7714 8.32459 26.0683C8.86083 27.3651 9.89028 28.3958 11.1865 28.9337C12.4827 29.4715 13.9394 29.4724 15.2362 28.9362L16.0397 28.6027C16.5115 29.4615 16.885 30.3708 17.1532 31.3132L16.3544 31.6449C15.3657 32.0526 14.3067 32.2626 13.2372 32.2632ZM42.3455 23.7197H52.656V21.0853H42.3455V23.7197ZM21.7034 40.4006V32.0692H21.7116C21.713 30.4918 22.0409 28.9318 22.6747 27.4874C23.3085 26.0429 24.2345 24.7454 25.3944 23.6763L30.1473 19.3494L28.1746 17.181L24.4198 20.6024L23.0841 16.8388L20.3226 17.8187L22.1201 22.8839C21.3655 23.7888 20.725 24.783 20.213 25.8441C19.4788 24.5136 18.4591 23.3621 17.2272 22.4723C15.9952 21.5824 14.5816 20.9763 13.0878 20.6974L12.5134 23.569C16.3755 24.3415 18.7749 27.5296 18.7749 31.8911V40.2558C19.6387 40.3285 20.6145 40.3818 21.7034 40.4006ZM29.6286 31.9795V35.4502H31.9729V31.9807L29.6286 31.9795ZM37.3646 26.2438H35.0203V29.7133H37.3646V26.2438ZM35.0203 35.449H37.3646V31.9795H35.0203V35.449Z" />
</g>
<defs>
<clipPath id="clip0_9192_8112">
<rect width="50" height="34.3998" fill="white" transform="translate(5 6)"/>
</clipPath>
</defs>
</svg>
