<svg viewBox="0 0 60 60" fill="none" xmlns="http://www.w3.org/2000/svg">
  <path fill-rule="evenodd" clip-rule="evenodd" d="M12.5 16.5H17.3143L13.5376 23.5498H12.5V16.5ZM20.1021 16.5903C20.118 16.5605 20.1327 16.5304 20.146 16.5H26.3143L22.5376 23.5498H16.3738L20.1021 16.5903ZM25.3738 23.5498H31.5376L35.3143 16.5H29.146C29.1327 16.5304 29.118 16.5605 29.1021 16.5903L25.3738 23.5498ZM40.5367 23.5498H34.3738L38.1021 16.5903C38.118 16.5605 38.1327 16.5304 38.146 16.5H44.3133L40.5367 23.5498ZM43.3728 23.5498H47.1V16.5924L43.3728 23.5498ZM12.5 26.0498V43.5H47.1V26.0498H12.5ZM10 46V14H49.6V46H10Z" fill="none"/>
</svg>
