<svg viewBox="0 0 80 80" fill="none" xmlns="http://www.w3.org/2000/svg">
<path fill-rule="evenodd" clip-rule="evenodd" d="M57.2028 8.92516C57.1689 8.92726 57.1351 8.93021 57.1016 8.93402L42.585 10.2041C42.5581 10.2059 42.5313 10.2082 42.5046 10.2111L27.9637 11.4832C27.9414 11.4848 27.9191 11.4868 27.8969 11.4891L9.33575 13.113L10.7549 29.3337L10.6697 29.3337L10.6697 66.667L69.3364 66.667L69.3364 29.3337L24.1791 29.3337C24.2158 29.2924 24.2509 29.2494 24.2842 29.2047L69.2899 25.2672L67.7792 7.99985L57.2028 8.92516ZM25.9215 25.0462L36.1226 24.1537C36.1249 24.1472 36.1273 24.1408 36.1297 24.1343L39.7365 14.4685L29.5356 15.361L25.9215 25.0462ZM25.1221 15.7471L13.6692 16.7491L14.4826 26.047L21.508 25.4323L25.1221 15.7471ZM44.15 14.0824L40.5359 23.7676L50.7469 22.8742C50.766 22.7937 50.7903 22.7134 50.82 22.6338L54.3438 13.1906L44.15 14.0824ZM55.1432 22.4896L58.7573 12.8044L64.143 12.3332L64.9565 21.6311L55.1432 22.4896ZM65.3364 33.3337L14.6697 33.3337L14.6697 62.667L65.3364 62.667L65.3364 33.3337Z" fill="currentColor"/>
</svg>
