<svg viewBox="0 0 61 60" fill="none" xmlns="http://www.w3.org/2000/svg">
<path fill-rule="evenodd" clip-rule="evenodd" d="M45.3112 37.9335C41.9837 37.4398 39.1144 37.5535 36.8048 39.8635L36.8046 39.8638C33.5416 43.1259 33.5414 48.415 36.8047 51.6783C40.0668 54.9404 45.3562 54.9406 48.6195 51.6782L48.6256 51.6721L48.6318 51.6661C50.487 49.8533 51.8872 47.6262 52.7177 45.1685C53.387 43.1879 53.6709 41.1024 53.5594 39.024C52.4814 39.0837 51.3793 38.9733 50.3224 38.8152C49.5187 38.695 48.6927 38.5387 47.8857 38.3859L47.8069 38.371C46.9642 38.2115 46.1371 38.056 45.3112 37.9335ZM50.7661 35.8482C52.3161 36.08 53.5372 36.1235 54.499 35.8609L56.1331 35.4148L56.3783 37.0908C56.8222 40.1259 56.5418 43.2229 55.5598 46.1289C54.5788 49.0319 52.9255 51.6631 50.7344 53.8059C46.2993 58.2333 39.1152 58.2314 34.6834 53.7996C30.2488 49.365 30.2485 42.1763 34.6833 37.7424C34.6834 37.7423 34.6835 37.7422 34.6835 37.7422M34.6835 37.7422C38.0499 34.3754 42.2005 34.4391 45.7514 34.9659C46.6451 35.0985 47.5288 35.2651 48.3648 35.4233L48.4185 35.4335C49.245 35.5899 50.0207 35.7368 50.7661 35.8482"/>
<path fill-rule="evenodd" clip-rule="evenodd" d="M46.2088 44.972L45.0889 45.9699C42.8688 47.948 40.2562 49.4353 37.4219 50.3344C34.5876 51.2334 31.5955 51.5241 28.6411 51.1873L27.1508 51.0174L27.4905 48.0368L28.9809 48.2066C31.5157 48.4956 34.083 48.2462 36.5148 47.4748C38.9467 46.7034 41.1883 45.4273 43.0931 43.7301L44.213 42.7322L46.2088 44.972Z"/>
<path fill-rule="evenodd" clip-rule="evenodd" d="M14.2522 34.9659C17.8032 34.4391 21.9538 34.3754 25.3206 37.7423C29.7545 42.1762 29.7543 49.3648 25.3208 53.7995L25.3205 53.7998C20.8878 58.2313 13.7038 58.2334 9.26855 53.8059C7.07767 51.663 5.4245 49.0317 4.4437 46.1287C3.46194 43.2227 3.18166 40.1257 3.62577 37.0908L3.87101 35.4148L5.505 35.8609C6.46683 36.1235 7.68781 36.08 9.23776 35.8482C9.98307 35.7368 10.7587 35.5899 11.5853 35.4335L11.6389 35.4233C12.4749 35.2651 13.3585 35.0985 14.2522 34.9659ZM6.44456 39.024C6.33294 41.1024 6.61676 43.1879 7.28588 45.1684C8.11621 47.6261 9.51624 49.8533 11.3713 51.6661L11.3774 51.6721L11.3835 51.6782C14.6466 54.9405 19.9359 54.9406 23.1992 51.6784C26.4616 48.4151 26.4614 43.1258 23.1993 39.8636C20.8892 37.5535 18.0197 37.4398 14.6925 37.9335C13.8666 38.056 13.0395 38.2115 12.1969 38.371L12.118 38.3859C11.311 38.5387 10.4852 38.6951 9.68145 38.8152C8.62462 38.9733 7.52257 39.0837 6.44456 39.024Z"/>
<path fill-rule="evenodd" clip-rule="evenodd" d="M15.7521 42.7903L16.8795 43.7797C18.7971 45.4627 21.0484 46.722 23.4861 47.4751C25.9239 48.2282 28.4931 48.4582 31.0259 48.1501L32.5149 47.9689L32.8772 50.947L31.3882 51.1281C28.4363 51.4873 25.4418 51.2192 22.6006 50.3414C19.7594 49.4637 17.1355 47.996 14.9006 46.0345L13.7732 45.045L15.7521 42.7903Z"/>
<path fill-rule="evenodd" clip-rule="evenodd" d="M9.50195 35C9.50195 23.6786 18.6795 14.5 30.002 14.5C41.3234 14.5 50.502 23.6786 50.502 35C50.502 35.8284 49.8304 36.5 49.002 36.5C48.1735 36.5 47.502 35.8284 47.502 35C47.502 25.3354 39.6665 17.5 30.002 17.5C20.3364 17.5 12.502 25.3354 12.502 35C12.502 35.8284 11.8304 36.5 11.002 36.5C10.1735 36.5 9.50195 35.8284 9.50195 35Z"/>
<path fill-rule="evenodd" clip-rule="evenodd" d="M34.6034 22.4527C34.9056 21.6814 35.7759 21.3011 36.5473 21.6033C39.6003 22.7995 42.0632 25.1442 43.4081 28.1347C43.7478 28.8902 43.4108 29.7782 42.6553 30.1179C41.8997 30.4577 41.0118 30.1207 40.672 29.3651C39.6489 27.0902 37.7753 25.3065 35.4528 24.3965C34.6815 24.0943 34.3012 23.224 34.6034 22.4527Z"/>
<path fill-rule="evenodd" clip-rule="evenodd" d="M31.002 4V12H28.002V4H31.002ZM42.8332 6.95546L39.7595 14.3412L36.9898 13.1885L40.0635 5.80281L42.8332 6.95546ZM19.9747 5.80287L23.0481 13.1897L20.2783 14.3421L17.2049 6.95531L19.9747 5.80287ZM9.55599 11.6407L15.2123 17.297L13.091 19.4183L7.43466 13.762L9.55599 11.6407ZM52.6043 13.7623L46.9467 19.4183L44.8257 17.2967L50.4833 11.6407L52.6043 13.7623ZM58.1466 23.4859L50.7511 26.5356L49.6074 23.7621L57.0029 20.7124L58.1466 23.4859ZM3.03497 20.7125L10.4315 23.762L9.288 26.5355L1.89148 23.486L3.03497 20.7125Z"/>
</svg>
