<svg viewBox="0 0 24 40" fill="none" xmlns="http://www.w3.org/2000/svg">
<path fill-rule="evenodd" clip-rule="evenodd" d="M17.0726 26.4444C16.2567 25.3407 15.3437 24.313 14.3448 23.3734C14.8925 23.0096 15.4231 22.6208 15.935 22.2081C19.2361 25.4149 23.3023 31.0958 22.6817 39.2857L20.7427 39.0842C20.8052 38.215 20.8101 37.3424 20.7573 36.4721L20.7203 35.8614H20.1085H3.07328H2.45912L2.42432 36.4746C2.37496 37.3442 2.3832 38.2159 2.44888 39.084L0.746142 39.2596L0.744323 39.2598L0.512286 39.2844C-0.238205 29.3649 5.89176 23.1203 9.20819 20.5112L9.85752 20.0004L9.20819 19.4895C5.89133 16.88 -0.238918 10.6545 0.512418 0.715819L2.45077 0.919727C2.38632 1.81338 2.38585 2.71078 2.44949 3.60505L2.49245 4.20891H3.09785H20.1044H20.7138L20.753 3.60077C20.8107 2.70656 20.8073 1.80972 20.7429 0.916481L22.683 0.714844C22.7137 1.11505 22.7304 1.50068 22.7304 1.88406V1.89115L22.7306 1.89824C22.8654 8.07696 20.3309 12.7397 17.6831 15.9066C15.0283 19.0819 12.2811 20.7252 12.081 20.835L12.0603 20.8464L12.0404 20.8592C9.74556 22.3439 7.7437 24.2385 6.135 26.4483L5.38329 27.4808H6.6605H16.5499H17.8387L17.0726 26.4444ZM3.63429 6.16035H2.79022L3.00586 6.97641C3.30489 8.10804 3.70802 9.20957 4.21011 10.2669L4.38637 10.6381H4.79727H18.4295H18.8423L19.0178 10.2646C19.515 9.20668 19.9126 8.1048 20.2054 6.97318L20.4157 6.16035H19.5761H3.63429ZM6.75878 12.5895H5.46749L6.23669 13.6267C7.6387 15.5172 9.31883 17.1845 11.22 18.5721L11.6003 18.8496L11.9826 18.5748C13.9024 17.1946 15.5971 15.5255 17.0063 13.6269L17.7764 12.5895H16.4844H6.75878ZM4.73175 29.4323H4.31746L4.14254 29.8078C3.64958 30.8661 3.25624 31.968 2.96761 33.0993L2.76077 33.91H3.59744H5.16173H19.5966H20.4333L20.2264 33.0993C19.9378 31.968 19.5445 30.8661 19.0515 29.8078L18.8766 29.4323H18.4623H4.73175Z" fill="currentColor"/>
</svg>
