<svg viewBox="0 0 60 60" fill="none" xmlns="http://www.w3.org/2000/svg">
<path d="M17.7075 54.5325C15.8625 54.5325 14.115 54.125 12.545 53.3975L5 55L6.5775 47.44C5.845 45.865 5.435 44.11 5.435 42.26C5.435 35.49 10.9225 30 17.695 30C24.4675 30 29.955 35.49 29.955 42.26C29.955 49.03 24.465 54.52 17.695 54.52" stroke="currentColor" stroke-width="3" stroke-linecap="round" stroke-linejoin="round"/>
<path d="M16.53 30.0475C15.5475 27.91 15 25.5675 15 23.1C15 13.0575 23.995 5 35 5C46.005 5 55 13.0575 55 23.1C55 29.035 51.845 34.26 47.0025 37.555C47.005 39.445 47 41.9925 47 44.6675L39.1525 40.8025C37.81 41.06 36.4225 41.2 35 41.2C33.2225 41.2 31.505 40.97 29.86 40.575" stroke="currentColor" stroke-width="3" stroke-linecap="round" stroke-linejoin="round"/>
<path d="M11.9888 42.4116C12.0376 42.4604 12.0376 42.5396 11.9888 42.5884C11.94 42.6372 11.8608 42.6372 11.812 42.5884C11.7632 42.5396 11.7632 42.4604 11.812 42.4116C11.8608 42.3628 11.94 42.3628 11.9888 42.4116" stroke="currentColor" stroke-width="3" stroke-linecap="round" stroke-linejoin="round"/>
<path d="M17.6138 42.4116C17.6626 42.4604 17.6626 42.5396 17.6138 42.5884C17.565 42.6372 17.4858 42.6372 17.437 42.5884C17.3882 42.5396 17.3882 42.4604 17.437 42.4116C17.4858 42.3628 17.565 42.3628 17.6138 42.4116" stroke="currentColor" stroke-width="3" stroke-linecap="round" stroke-linejoin="round"/>
<path d="M23.2388 42.4116C23.2876 42.4604 23.2876 42.5396 23.2388 42.5884C23.19 42.6372 23.1108 42.6372 23.062 42.5884C23.0132 42.5396 23.0132 42.4604 23.062 42.4116C23.1108 42.3628 23.19 42.3628 23.2388 42.4116" stroke="currentColor" stroke-width="3" stroke-linecap="round" stroke-linejoin="round"/>
<path d="M35 25.11C35 23.4675 36.015 22.5775 37.0325 21.8925C38.0275 21.2225 39.0225 20.35 39.0225 18.7425C39.0225 16.52 37.2225 14.72 35 14.72C32.7775 14.72 30.9775 16.52 30.9775 18.7425" stroke="currentColor" stroke-width="3" stroke-linecap="round" stroke-linejoin="round"/>
<path d="M35 31.145C34.8625 31.145 34.75 31.2575 34.75 31.395C34.75 31.5325 34.8625 31.645 35 31.645C35.1375 31.645 35.25 31.5325 35.25 31.395C35.25 31.2575 35.1375 31.145 35 31.145" stroke="currentColor" stroke-width="3" stroke-linecap="round" stroke-linejoin="round"/>
</svg>
