<svg width="24" height="24" viewBox="0 0 24 24" fill="none" xmlns="http://www.w3.org/2000/svg">
<path d="M3.93402e-07 0H9V2H3.93402e-07V0Z" fill="#1D1F22"/>
<path d="M2 0L2 9H0L3.93402e-07 0H2Z" fill="#1D1F22"/>
<path d="M3.93402e-07 24H9V22H3.93402e-07V24Z" fill="#1D1F22"/>
<path d="M2 24L2 15H0L3.93402e-07 24H2Z" fill="#1D1F22"/>
<path d="M24 0H15V2H24V0Z" fill="#1D1F22"/>
<path d="M22 0V9H24V0H22Z" fill="#1D1F22"/>
<path d="M24 24H15V22H24V24Z" fill="#1D1F22"/>
<path d="M22 24V15H24V24H22Z" fill="#1D1F22"/>
</svg>
