<svg viewBox="0 0 80 80" fill="none" xmlns="http://www.w3.org/2000/svg">
<path fill-rule="evenodd" clip-rule="evenodd" d="M19.5791 48H8.0007L8 75.3333H19.5791L22.4959 72.4166H26.0629C26.8532 72.4166 27.6385 72.5134 28.3996 72.7057L28.4058 72.7072L36.1336 74.6334L34.1572 70.0184L34.1591 70.0188L36.1358 74.6339C38.1008 75.1258 40.1492 75.172 42.1296 74.7782L50.6773 73.068C53.323 72.5404 55.7553 71.236 57.6604 69.3308L63.7058 63.2855L63.7071 63.2842C66.216 60.7786 66.2136 56.7157 63.7072 54.2091L63.7056 54.2075C61.4467 51.9536 57.8736 51.6953 55.316 53.6135L49.9022 57.6751C49.9115 57.5335 49.9162 57.3907 49.9162 57.2467V56.3633C49.9162 53.4191 47.9118 50.8522 45.0544 50.1397L45.053 50.1393L38.374 48.4704L38.3725 48.47C37.125 48.1564 35.845 48 34.5629 48C31.466 48 28.4331 48.9162 25.8568 50.6359L25.8557 50.6367L23.6674 52.0955V52.0883L19.5791 48ZM19.6674 55.762C19.6656 55.8107 19.6656 55.8595 19.6674 55.9083V68.4166H19.6662V69.5894L17.9222 71.3333H12.0001L12.0006 52H17.9222L19.6674 53.7451V55.762ZM23.6674 56.9029L27.4583 54.3756L34.1572 70.0184L29.3795 68.8275L29.3762 68.8267C28.2917 68.553 27.1782 68.4166 26.0629 68.4166H23.6674V56.9029ZM27.4586 54.3755L27.4583 54.3756L25.8568 50.6359L27.4586 54.3755ZM27.4586 54.3755L28.0768 53.9633C29.9936 52.6836 32.2535 52 34.5629 52C35.5203 52 36.473 52.1169 37.3984 52.3496L44.086 54.0207C45.1613 54.2886 45.9162 55.2547 45.9162 56.3633V57.2467C45.9162 58.5771 44.8445 59.6548 43.5182 59.6666H39.1662C38.0617 59.6666 37.1662 60.562 37.1662 61.6666C37.1662 62.7711 38.0617 63.6666 39.1662 63.6666L43.4962 63.6667L43.5319 63.6666H45.9695C47.6629 63.6666 49.3119 63.1213 50.6712 62.0988L50.6721 62.0981L57.7165 56.8131C58.6786 56.0917 60.0252 56.1864 60.8797 57.0384C61.825 57.9849 61.8228 59.5135 60.88 60.4545L54.832 66.5024C53.4838 67.8506 51.7628 68.7728 49.8951 69.1452L41.349 70.8551C39.9437 71.1345 38.4931 71.1008 37.1055 70.7532L34.1591 70.0188L27.4586 54.3755Z" fill="currentColor"/>
<path fill-rule="evenodd" clip-rule="evenodd" d="M36.334 11.6665C36.334 7.80051 39.468 4.6665 43.334 4.6665C47.1999 4.6665 50.334 7.80051 50.334 11.6665C50.334 13.0254 49.9468 14.2938 49.2767 15.3676C59.7737 17.8912 67.7262 26.9504 68.5889 38.0002H71.9993V42.0002H14.666V38.0002H18.0778C18.9406 26.95 26.8936 17.8905 37.3911 15.3673C36.7211 14.2936 36.334 13.0253 36.334 11.6665ZM22.0925 38.0002H64.5742C63.5662 27.1558 54.4411 18.6665 43.3333 18.6665C32.2256 18.6665 23.1005 27.1558 22.0925 38.0002ZM43.334 8.6665C41.6771 8.6665 40.334 10.0097 40.334 11.6665C40.334 13.3233 41.6772 14.6665 43.334 14.6665C44.9908 14.6665 46.334 13.3233 46.334 11.6665C46.334 10.0097 44.9908 8.6665 43.334 8.6665Z" fill="currentColor"/>
</svg>
