<svg viewBox="0 0 60 60" xmlns="http://www.w3.org/2000/svg">
<path d="M45.6085 22.9722C46.0869 22.5211 48.6902 19.8904 48.7957 16.1145C48.8661 13.6158 47.8318 11.2211 45.7562 9L42.5619 9.01388C41.6754 10.0342 39.7476 12.6232 39.7827 15.9271C39.8039 18.4883 40.9648 20.8622 43.2303 22.9861H45.6155L45.6085 22.9722ZM44.2224 12.3386C45.0667 13.5464 45.4818 14.768 45.4537 15.9896C45.4255 17.3153 44.8838 18.4606 44.349 19.2796C43.547 18.1968 43.1318 17.0654 43.1178 15.9132C43.0967 14.5042 43.6595 13.2479 44.2224 12.3386ZM50.2099 38.4646L41.8724 38.9574V38.9435L37.5313 39.117L28.1946 30.5449C25.3029 27.942 21.5809 26.5052 17.7112 26.5052H10.9074L7.81165 23.4512H2V26.9217H7.75536V44.413H2V47.8835H7.76943L11.2452 44.4546L26.9985 50.9584L27.3222 50.9722C27.8569 50.9931 28.3987 51 28.9404 51C37.9534 51 47.3745 48.5845 52.3559 47.0783C54.4807 46.4398 55.6346 44.4338 55.1702 42.1988C54.7411 40.1235 52.8906 38.173 50.217 38.4646H50.2099ZM51.3216 43.7605C47.29 44.9752 36.9754 47.7516 27.7584 47.5156L11.2733 40.7134V29.9896H17.7182C20.7084 29.9896 23.5932 31.1001 25.8165 33.113L32.5076 39.2558C30.7064 39.1934 28.1313 38.9574 26.5271 37.9995L21.7709 35.4799L20.1034 38.5409L24.74 40.998C27.3785 42.5528 31.0653 42.7471 33.9852 42.7471H34.0204L41.197 42.4556V42.4834L50.3858 41.942L50.5758 41.9212C51.3005 41.8309 51.6312 42.532 51.7086 42.9068C51.8563 43.6009 51.4623 43.7189 51.3146 43.7675L51.3216 43.7605ZM43.16 34.5082L44.4475 34.5498H44.5883H44.729L46.0166 34.5082C50.034 34.3763 53.1298 33.0922 55.2265 30.6976C57.9987 27.5255 58.055 23.4234 57.9846 22.0699L55.7402 20.2097C47.8037 21.1398 45.3341 26.0818 44.5883 29.5454C43.8425 26.0749 41.3729 21.1329 33.4364 20.2097L31.1919 22.0699C31.1216 23.4234 31.1779 27.5255 33.95 30.6976C36.0467 33.0922 39.1425 34.3763 43.16 34.5082ZM54.6003 23.7357C54.4667 25.1101 54.0164 27.0397 52.6725 28.5597C51.5116 29.8785 49.83 30.7115 47.663 31.0516C47.9374 28.8096 49.2038 24.9574 54.5933 23.7357H54.6003ZM41.5136 31.0516C39.3465 30.7184 37.6649 29.8785 36.497 28.5597C35.1531 27.0327 34.7099 25.1031 34.5692 23.7288C39.9868 24.9435 41.2462 28.7819 41.5065 31.0516H41.5136Z" />
</svg>
