<svg viewBox="0 0 60 60" fill="none" xmlns="http://www.w3.org/2000/svg">
<path fill-rule="evenodd" clip-rule="evenodd" d="M15 52.5H10C8.62 52.5 7.5 51.38 7.5 50V35C7.5 33.62 8.62 32.5 10 32.5H15C16.38 32.5 17.5 33.62 17.5 35V50C17.5 51.38 16.38 52.5 15 52.5Z" stroke="currentColor" stroke-width="3" stroke-linecap="round" stroke-linejoin="round"/>
<path d="M32.5 42.4999H38.3325C39.415 42.4999 40.4675 42.1499 41.3325 41.4999L47.3725 36.9699C48.88 35.8399 50.99 35.9899 52.3225 37.3224V37.3224C53.8025 38.8024 53.8025 41.1999 52.3225 42.6774L47.14 47.8599C45.745 49.2549 43.965 50.2074 42.03 50.5949L34.705 52.0599C33.2525 52.3499 31.755 52.3149 30.3175 51.9549L23.6925 50.2999C22.9 50.0999 22.0875 49.9999 21.27 49.9999H17.5" stroke="currentColor" stroke-width="3" stroke-linecap="round" stroke-linejoin="round"/>
<path d="M32.5 42.5H36.2125C38.305 42.5 40 40.805 40 38.7125V37.955C40 36.2175 38.8175 34.7025 37.1325 34.2825L31.4025 32.85C30.47 32.6175 29.515 32.5 28.555 32.5V32.5C26.2375 32.5 23.97 33.185 22.0425 34.4725L17.5 37.5" stroke="currentColor" stroke-width="3" stroke-linecap="round" stroke-linejoin="round"/>
<path fill-rule="evenodd" clip-rule="evenodd" d="M47.2229 8.80513C50.8879 9.33763 52.8779 12.9201 52.4404 15.9251C51.5554 22.0226 40.6229 25.5301 40.4379 25.5051C40.2529 25.4776 30.7729 19.0026 31.6579 12.9076C32.0954 9.90263 35.0204 7.03513 38.6854 7.56763C40.7804 7.87263 42.0154 9.05263 42.6829 10.0401C43.6079 9.28013 45.1279 8.50013 47.2229 8.80513V8.80513Z" stroke="currentColor" stroke-width="3" stroke-linecap="round" stroke-linejoin="round"/>
</svg>
