<svg xmlns="http://www.w3.org/2000/svg" viewBox="0 0 90 90">
  <path class="st0" d="M47.5,84.8c-10.7,0-20.6-4.7-27.4-13c-1-1.2-0.8-2.9,0.4-3.9c1.2-1,2.9-0.8,3.9,0.4c5.7,7,14.1,11,23.1,11	c16.4,0,29.8-13.3,29.8-29.8S63.9,19.8,47.5,19.8c-12,0-22.8,7.2-27.5,18.3c-0.6,1.4-2.2,2.1-3.6,1.5C15,39,14.4,37.3,15,35.9	c5.1-12.3,16.6-20.6,29.8-21.6V9.8H37c-1.5,0-2.8-1.2-2.8-2.8s1.2-2.8,2.8-2.8h19.5c1.5,0,2.8,1.2,2.8,2.8S58,9.8,56.5,9.8h-6.2v4.6	C68.4,15.8,82.8,31,82.8,49.5C82.8,68.9,66.9,84.8,47.5,84.8z"/>
  <path class="st0" d="M24.3,75.1c-0.7,0-1.4-0.3-1.9-0.8c-5.7-5.7-9.2-13.2-10-21.1l-3.6,3.6c-1.1,1.1-2.8,1.1-3.9,0	c-1.1-1.1-1.1-2.8,0-3.9l8.3-8.3c0,0,0.1-0.1,0.1-0.1l0,0l0,0c0.3-0.3,0.6-0.5,1-0.6c0.3-0.1,0.7-0.2,1.1-0.2c0.3,0,0.5,0.1,0.8,0.2	c0,0,0,0,0,0c0,0,0,0,0,0c0,0,0,0,0,0c0,0,0,0,0,0c0,0,0,0,0,0l0,0c0.1,0,0.1,0.1,0.2,0.1c0,0,0,0,0,0c0,0,0,0,0,0c0,0,0,0,0,0	c0,0,0,0,0,0l0,0c0,0,0,0,0,0c0,0,0,0,0,0l0,0c0,0,0,0,0,0l0,0c0.1,0,0.1,0.1,0.2,0.1c0,0,0,0,0,0c0,0,0,0,0,0c0,0,0,0,0,0	c0,0,0,0,0,0l0,0c0.2,0.1,0.4,0.3,0.6,0.4l6.7,6.7c1.1,1.1,1.1,2.8,0,3.9s-2.8,1.1-3.9,0l-2-2c0.7,6.4,3.6,12.5,8.3,17.1	c1.1,1.1,1.1,2.8,0,3.9C25.7,74.8,25,75.1,24.3,75.1z"/>
  <path class="st0" d="M47.5,58.8c-4.5,0-8.2-3.7-8.2-8.2s3.7-8.2,8.2-8.2s8.2,3.7,8.2,8.2S52,58.8,47.5,58.8z M47.5,47.8	c-1.5,0-2.8,1.2-2.8,2.8s1.2,2.8,2.8,2.8s2.8-1.2,2.8-2.8S49,47.8,47.5,47.8z"/>
  <path class="st0" d="M63.2,63.1c-0.5,0-0.9-0.1-1.4-0.4l-10-5.8c-1.3-0.8-1.8-2.4-1-3.8c0.8-1.3,2.4-1.8,3.8-1l10,5.8	c1.3,0.8,1.8,2.4,1,3.8C65.1,62.6,64.2,63.1,63.2,63.1z M48.2,46c-1.5,0-2.8-1.2-2.8-2.8V31.8c0-1.5,1.2-2.8,2.8-2.8	s2.8,1.2,2.8,2.8v11.5C51,44.8,49.8,46,48.2,46z"/>
</svg>