<svg xmlns="http://www.w3.org/2000/svg" viewBox="0 0 144 144" fill="#009ABB">
  <path class="st0" d="M72.4,86.6c-7.8,0-14.2-6.4-14.2-14.2c0-7.8,6.4-14.2,14.2-14.2c7.8,0,14.2,6.4,14.2,14.2	C86.6,80.2,80.2,86.6,72.4,86.6z M72.4,62.7c-5.4,0-9.7,4.4-9.7,9.7c0,5.4,4.4,9.7,9.7,9.7c5.4,0,9.7-4.4,9.7-9.7	C82.1,67.1,77.8,62.7,72.4,62.7z"/>
  <path class="st0" d="M72.4,35.2c-4.5,0-8.2-3.7-8.2-8.2s3.7-8.2,8.2-8.2s8.2,3.7,8.2,8.2S77,35.2,72.4,35.2z M72.4,23.2	c-2.1,0-3.7,1.7-3.7,3.7c0,2.1,1.7,3.7,3.7,3.7c2.1,0,3.7-1.7,3.7-3.7C76.1,24.9,74.5,23.2,72.4,23.2z"/>
  <rect x="70.2" y="33" class="st0" width="4.5" height="27.5"/>
  <path class="st0" d="M72.4,126.1c-4.5,0-8.2-3.7-8.2-8.2s3.7-8.2,8.2-8.2s8.2,3.7,8.2,8.2S77,126.1,72.4,126.1z M72.4,114.1	c-2.1,0-3.7,1.7-3.7,3.7s1.7,3.7,3.7,3.7c2.1,0,3.7-1.7,3.7-3.7S74.5,114.1,72.4,114.1z"/>
  <rect x="70.2" y="84.4" class="st0" width="4.5" height="27.5"/>
  <path class="st0" d="M27,80.6c-4.5,0-8.2-3.7-8.2-8.2s3.7-8.2,8.2-8.2s8.2,3.7,8.2,8.2S31.5,80.6,27,80.6z M27,68.7	c-2.1,0-3.7,1.7-3.7,3.7s1.7,3.7,3.7,3.7c2.1,0,3.7-1.7,3.7-3.7S29,68.7,27,68.7z"/>
  <rect x="33" y="70.2" class="st0" width="27.5" height="4.5"/>
  <path class="st0" d="M117.8,80.6c-4.5,0-8.2-3.7-8.2-8.2s3.7-8.2,8.2-8.2s8.2,3.7,8.2,8.2S122.4,80.6,117.8,80.6z M117.8,68.7	c-2.1,0-3.7,1.7-3.7,3.7s1.7,3.7,3.7,3.7s3.7-1.7,3.7-3.7S119.9,68.7,117.8,68.7z"/>
  <rect x="84.4" y="70.2" class="st0" width="27.5" height="4.5"/>
  <path class="st0" d="M40.3,112.8c-2.1,0-4.2-0.8-5.8-2.4l0,0c-3.2-3.2-3.2-8.4,0-11.6c3.2-3.2,8.4-3.2,11.6,0	c3.2,3.2,3.2,8.4,0,11.6C44.5,112,42.4,112.8,40.3,112.8z M37.6,107.2c1.5,1.5,3.8,1.5,5.3,0c1.5-1.5,1.5-3.8,0-5.3s-3.8-1.5-5.3,0	c-0.7,0.7-1.1,1.6-1.1,2.6S36.9,106.5,37.6,107.2L37.6,107.2z"/>
  <rect x="40.5" y="88.3" transform="matrix(0.7071 -0.7071 0.7071 0.7071 -48.171 64.8856)" class="st0" width="27.5" height="4.5"/>
  <path class="st0" d="M104.5,48.5c-2.2,0-4.3-0.9-5.8-2.4c-1.6-1.6-2.4-3.6-2.4-5.8s0.9-4.3,2.4-5.8c1.6-1.6,3.6-2.4,5.8-2.4	s4.3,0.9,5.8,2.4l0,0c0,0,0,0,0,0c1.6,1.6,2.4,3.6,2.4,5.8s-0.9,4.3-2.4,5.8S106.7,48.5,104.5,48.5z M104.5,36.6	c-1,0-1.9,0.4-2.6,1.1c-0.7,0.7-1.1,1.6-1.1,2.6c0,1,0.4,1.9,1.1,2.6c1.4,1.4,3.9,1.4,5.3,0c0.7-0.7,1.1-1.6,1.1-2.6	c0-1-0.4-1.9-1.1-2.6v0C106.5,36.9,105.5,36.6,104.5,36.6z"/>
  <rect x="76.8" y="52" transform="matrix(0.7071 -0.7071 0.7071 0.7071 -11.819 79.9431)" class="st0" width="27.5" height="4.5"/>
  <path class="st0" d="M104.5,112.8c-2.1,0-4.2-0.8-5.8-2.4c-3.2-3.2-3.2-8.4,0-11.6c3.2-3.2,8.4-3.2,11.6,0c3.2,3.2,3.2,8.4,0,11.6	c0,0,0,0,0,0C108.8,112,106.6,112.8,104.5,112.8z M108.8,108.8L108.8,108.8L108.8,108.8z M104.5,100.8c-1,0-1.9,0.4-2.6,1.1	c-1.5,1.5-1.5,3.8,0,5.3c1.5,1.5,3.8,1.5,5.3,0c1.5-1.5,1.5-3.8,0-5.3C106.5,101.2,105.5,100.8,104.5,100.8z"/>
  <rect x="88.3" y="76.8" transform="matrix(0.7071 -0.7071 0.7071 0.7071 -37.5237 90.5903)" class="st0" width="4.5" height="27.5"/>
  <path class="st0" d="M40.3,48.5c-2.2,0-4.3-0.9-5.8-2.4c-1.6-1.6-2.4-3.6-2.4-5.8s0.9-4.3,2.4-5.8c3.2-3.2,8.4-3.2,11.6,0	c3.2,3.2,3.2,8.4,0,11.6C44.5,47.7,42.5,48.5,40.3,48.5z M40.3,36.6c-1,0-1.9,0.4-2.6,1.1c-0.7,0.7-1.1,1.6-1.1,2.6	c0,1,0.4,1.9,1.1,2.6c1.4,1.4,3.9,1.4,5.3,0c1.5-1.5,1.5-3.8,0-5.3C42.2,36.9,41.2,36.6,40.3,36.6z"/>
  <rect x="52" y="40.5" transform="matrix(0.7071 -0.7071 0.7071 0.7071 -22.4662 54.2383)" class="st0" width="4.5" height="27.5"/>
</svg>