<svg xmlns="http://www.w3.org/2000/svg" viewBox="0 0 90 100" xml:space="preserve">
  <path d="M59,47.6L38,36V12.7L59,1.2l21,11.5V36L59,47.6z M43,33.1l16,8.8l16-8.8V15.7L59,6.9l-16,8.8V33.1z"/>
  <path d="M11.9,91.6H2.7c-1.4,0-2.5-1.1-2.5-2.5s1.1-2.5,2.5-2.5h9.2c1.2,0,2.1-1,2.1-2.1V56.7c0-1.2-1-2.1-2.1-2.1H2.7	c-1.4,0-2.5-1.1-2.5-2.5s1.1-2.5,2.5-2.5h9.2c3.9,0,7.1,3.2,7.1,7.1v25.2h4.5c1.7,0,3.4,0.2,5.1,0.6l12.2,3.1c2.3,0.6,4.7,0.6,7,0.2	l13.5-2.7c3.1-0.6,5.9-2.1,8.2-4.4l9.6-9.6c0.9-0.9,1.3-2,1.3-3.2c0-1.2-0.5-2.3-1.3-3.2c-1.6-1.6-4.1-1.8-5.9-0.4l-11.2,8.4	c-2,1.5-4.5,2.3-7,2.3H44.2c-1.4,0-2.5-1.1-2.5-2.5s1.1-2.5,2.5-2.5H55c1.5,0,2.9-0.5,4-1.3l11.2-8.4c3.8-2.8,9.1-2.4,12.4,0.9	c3.7,3.7,3.7,9.7,0,13.4l-9.6,9.6c-2.9,2.9-6.6,4.9-10.7,5.7l-13.5,2.7c-3,0.6-6.2,0.5-9.2-0.2l-12.2-3.1c-1.3-0.3-2.6-0.5-3.9-0.5	h-4.9C17.5,89.6,14.9,91.6,11.9,91.6z M59,45.4c-1.4,0-2.5-1.1-2.5-2.5v-17l-16.6-9.5c-1.2-0.7-1.6-2.2-0.9-3.4	c0.7-1.2,2.2-1.6,3.4-0.9L59,21.6l16.6-9.5c1.2-0.7,2.7-0.3,3.4,0.9c0.7,1.2,0.3,2.7-0.9,3.4l-16.6,9.5v16.9	C61.5,44.2,60.4,45.4,59,45.4z M30.5,34.6H19.4c-1.4,0-2.5-1.1-2.5-2.5s1.1-2.5,2.5-2.5h11.1c1.4,0,2.5,1.1,2.5,2.5	S31.9,34.6,30.5,34.6z M30.6,26.9H14.6c-1.4,0-2.5-1.1-2.5-2.5s1.1-2.5,2.5-2.5h16.1c1.4,0,2.5,1.1,2.5,2.5S32,26.9,30.6,26.9z M30.6,19.3H9.8c-1.4,0-2.5-1.1-2.5-2.5s1.1-2.5,2.5-2.5h20.8c1.4,0,2.5,1.1,2.5,2.5S32,19.3,30.6,19.3z"/>
  <path d="M51.1,73.1h-6.9c-1.4,0-2.5-1.1-2.5-2.5s1.1-2.5,2.5-2.5h6.9c2.5,0,4.5-2,4.5-4.5v-1.4c0-2.1-1.4-3.9-3.4-4.4	l-10.6-2.6c-1.5-0.4-3.1-0.6-4.7-0.6c0,0,0,0,0,0c-3.8,0-7.5,1.1-10.6,3.2l-8.4,5.6c-1.1,0.8-2.7,0.5-3.5-0.7	c-0.8-1.1-0.5-2.7,0.7-3.5l8.4-5.6c4-2.7,8.6-4.1,13.4-4.1c0,0,0,0,0,0c2,0,3.9,0.2,5.9,0.7L53.4,53c4.2,1.1,7.2,4.8,7.2,9.2v1.4	C60.6,68.8,56.3,73.1,51.1,73.1z"/>
</svg>