
<svg version="1.1" id="Capa_1" xmlns="http://www.w3.org/2000/svg" xmlns:xlink="http://www.w3.org/1999/xlink" x="0px" y="0px"
	 viewBox="0 0 144 144" style="enable-background:new 0 0 144 144;" xml:space="preserve">
<g>
	<path class="st0" d="M67.4,39.5c0.3,1.3,1.7,2.1,3,1.8c1.3-0.3,2.1-1.7,1.8-3l-5.8-22.4c-0.3-1.3-1.7-2.1-3-1.8
		c-1.3,0.3-2.1,1.7-1.8,3L67.4,39.5z"/>
	<path class="st0" d="M30.2,50.7l7.7,4.6c1.2,0.7,2.7,0.3,3.4-0.9c0.7-1.2,0.3-2.7-0.9-3.4l-7.7-4.6c-1.2-0.7-2.7-0.3-3.4,0.9
		S29,50,30.2,50.7z"/>
	<path class="st0" d="M43.2,45.2c4.5-4.2,9.5-8,14.9-11.1c1.4-0.8,1.9-2.7,1.1-4.1c-0.8-1.4-2.7-1.9-4.1-1.1
		c-5.8,3.4-11.2,7.4-16,11.9c-1.2,1.1-1.2,3-0.1,4.2C40.1,46.3,42,46.3,43.2,45.2z"/>
	<path class="st0" d="M92.3,54.6l-2.8-0.5L69,50.7l-1.8-0.3L66.6,52L55.2,79l-0.5,1.2l0.8,1.1l2.3,3l0.7,0.9h1.1H69l9.2,13.4
		l1.2,1.8l1.9-1.1l20.9-12.9l1.5-0.9l-0.5-1.7l-1.5-5.3l-0.5-1.9l-2,0.3l-4.1,0.5l-6.5-13.2l2.7-7L92.3,54.6z M91.7,80.9l0.7,1.5
		l1.6-0.2l3.8-0.5l0.5,1.8L80.7,94.3l-8.7-12.6l-0.7-1h-1.2h-9.5l-0.8-1.1l10.2-24.1l16,2.7l-2,5.4l-0.4,0.9l0.4,0.9L91.7,80.9z"/>
	<path class="st0" d="M78.2,29c25.3,0,45.8,20.5,45.8,45.7c0,9.4-2.9,18.1-7.8,25.4c-0.9,1.4-0.6,3.2,0.8,4.2s3.2,0.6,4.2-0.8
		c5.5-8.2,8.8-18.1,8.8-28.7C130,46.1,106.8,23,78.2,23c-1.7,0-3,1.3-3,3C75.2,27.6,76.6,29,78.2,29z"/>
	<path class="st0" d="M103.7,112.6c-7.3,4.9-16,7.7-25.4,7.7c-4.6,0-9.1-0.7-13.3-2c-1.6-0.5-3.3,0.4-3.7,2c-0.5,1.6,0.4,3.3,2,3.7
		c4.8,1.4,9.8,2.2,15.1,2.2c10.6,0,20.5-3.2,28.8-8.7c1.4-0.9,1.8-2.8,0.8-4.2S105,111.7,103.7,112.6z"/>
	<path class="st0" d="M61.2,108.7c-1.2-0.7-2.7-0.4-3.5,0.8l-10,15.7c-0.7,1.2-0.4,2.7,0.8,3.5c1.2,0.7,2.7,0.4,3.5-0.8l10-15.7
		C62.7,111,62.4,109.5,61.2,108.7z"/>
	<path class="st0" d="M104,99c-1-0.9-2.6-0.8-3.5,0.3c-0.9,1-0.8,2.6,0.3,3.5l21,18c1,0.9,2.6,0.8,3.5-0.3c0.9-1,0.8-2.6-0.3-3.5
		L104,99z"/>
	<path class="st0" d="M30,75.7c1.6-0.2,2.9-1.6,2.7-3.3c-0.3-3.7,0.2-7.3,1.5-10.9c0.6-1.6-0.2-3.3-1.8-3.9
		c-1.6-0.6-3.3,0.2-3.9,1.8c-1.6,4.3-2.3,8.8-1.9,13.5C26.9,74.6,28.3,75.9,30,75.7z"/>
	<path class="st0" d="M49.9,114.4c1-1.3,0.8-3.2-0.5-4.2C43,104.9,38,97.9,35.1,89.9c-0.6-1.6-2.3-2.4-3.8-1.8
		c-1.6,0.6-2.4,2.3-1.8,3.8c3.2,9.1,8.9,17,16.3,23C47,115.9,48.9,115.7,49.9,114.4z"/>
	<path class="st0" d="M46.3,79.3c-0.2-1.4-1.4-2.3-2.8-2.2l-26.4,3.4c-1.4,0.2-2.3,1.4-2.2,2.8c0.2,1.4,1.4,2.3,2.8,2.2l26.4-3.4
		C45.6,81.9,46.5,80.7,46.3,79.3z"/>
</g>
</svg>
