<svg xmlns="http://www.w3.org/2000/svg" viewBox="0 0 77 107">
  <path d="M64,38c0,6.4-2.3,13.5-6.2,19.3l-3.9,0c-0.7-0.6-1.5-1.2-2.4-1.7C47.8,53.3,43.1,52,38,52s-9.8,1.3-13.5,3.6	c-0.8,0.5-1.6,1-2.3,1.6l-4.1,0C14.3,51.4,12,44.4,12,38c0-14.4,11.6-26,26-26S64,23.6,64,38z M18.1,57.3l4.1,0	c-0.9,0.7-1.7,1.5-2.4,2.4C19.2,58.9,18.7,58.1,18.1,57.3z M38,70c-5.2,0-10-2.3-14-5.9c0.8-1.2,2-2.4,3.6-3.4	C30.3,59.1,33.9,58,38,58s7.7,1.1,10.4,2.7c1.6,1,2.8,2.2,3.6,3.4C48,67.7,43.2,70,38,70z M53.9,57.3c0.8,0.7,1.6,1.5,2.3,2.3	c0.6-0.8,1.1-1.5,1.7-2.3C57.8,57.3,53.9,57.3,53.9,57.3z M11,57.2h0.1l0,0L11,57.2l-0.7-1.2c-0.8-1.3-1.6-2.6-2.2-4L8.1,52	c0,0,0,0,0,0l0,0l0,0c-0.9-1.8-1.5-3.7-2-5.6v0C5.4,43.6,5,40.8,5,38C5,19.8,19.8,5,38,5s33,14.8,33,33c0,2.9-0.4,5.7-1.1,8.3h0	c-0.5,1.9-1.2,3.8-2,5.6l0,0l0,0l0,0l-0.1,0.2c-0.2,0.5-0.4,0.9-0.7,1.4l-1.9,3.8l-22.3,44c-1.4,2.9-5.5,2.9-7.1,0.1L11,57.2	L11,57.2z M33.8,29.8c2.3-2.3,6.1-2.3,8.5,0c0,0,0,0,0,0c2.3,2.3,2.3,6.1,0,8.5c0,0,0,0,0,0c-2.3,2.3-6.1,2.3-8.5,0	C31.4,35.9,31.4,32.1,33.8,29.8z M46.5,42.5c4.7-4.7,4.7-12.3,0-17c-4.7-4.7-12.3-4.7-17,0c-4.7,4.7-4.7,12.3,0,17	C34.2,47.2,41.8,47.2,46.5,42.5z" fill-rule="evenodd" clip-rule="evenodd"/>
</svg>