<svg xmlns="http://www.w3.org/2000/svg" viewBox="0 0 144 144" fill="#009ABB">
  <path class="st0" d="M35,120c-1.7,0-3-1.3-3-3V95c0-4.4,3.6-8,8-8h18.5c4.4,0,8,3.6,8,8v20c0,1.7-1.3,3-3,3s-3-1.3-3-3V95	c0-1.1-0.9-2-2-2H40c-1.1,0-2,0.9-2,2v22C38,118.7,36.7,120,35,120z"/>
  <path class="st0" d="M49,67c-1.7,0-3-1.3-3-3V49c0-1.7,1.3-3,3-3s3,1.3,3,3v15C52,65.7,50.7,67,49,67z"/>
  <path class="st0" d="M80,120c-1.7,0-3-1.3-3-3V47c0-1.7,1.3-3,3-3s3,1.3,3,3v70C83,118.7,81.7,120,80,120z"/>
  <path class="st0" d="M98,118c-1.7,0-3-1.3-3-3V47c0-1.7,1.3-3,3-3s3,1.3,3,3v68C101,116.7,99.7,118,98,118z"/>
  <path class="st0" d="M120,120.5H20c-1.7,0-3-1.3-3-3s1.3-3,3-3h100c1.7,0,3,1.3,3,3S121.7,120.5,120,120.5z"/>
  <path class="st0" d="M97,61H82c-1.7,0-3-1.3-3-3s1.3-3,3-3h15c1.7,0,3,1.3,3,3S98.7,61,97,61z"/>
  <path class="st0" d="M97,73H82c-1.7,0-3-1.3-3-3s1.3-3,3-3h15c1.7,0,3,1.3,3,3S98.7,73,97,73z"/>
  <path class="st0" d="M97,85H82c-1.7,0-3-1.3-3-3s1.3-3,3-3h15c1.7,0,3,1.3,3,3S98.7,85,97,85z"/>
  <path class="st0" d="M97,97H82c-1.7,0-3-1.3-3-3s1.3-3,3-3h15c1.7,0,3,1.3,3,3S98.7,97,97,97z"/>
  <path class="st0" d="M97,109H82c-1.7,0-3-1.3-3-3s1.3-3,3-3h15c1.7,0,3,1.3,3,3S98.7,109,97,109z"/>
  <path class="st0" d="M124,49H37c-1.7,0-3-1.3-3-3s1.3-3,3-3h87c1.7,0,3,1.3,3,3S125.7,49,124,49z"/>
  <path class="st0" d="M46,64h6c1.1,0,2,0.9,2,2v6c0,1.1-0.9,2-2,2h-6c-1.1,0-2-0.9-2-2v-6C44,64.9,44.9,64,46,64z"/>
  <path class="st0" d="M37,49c-1.2,0-2.4-0.8-2.8-2c-0.5-1.6,0.3-3.3,1.8-3.8l63-22c1.6-0.5,3.3,0.3,3.8,1.8c0.5,1.6-0.3,3.3-1.8,3.8	l-63,22C37.7,48.9,37.3,49,37,49z"/>
  <path class="st0" d="M125,49c-0.7,0-1.4-0.2-2-0.7l-25-22c-1.2-1.1-1.4-3-0.3-4.2c1.1-1.2,3-1.4,4.2-0.3l25,22	c1.2,1.1,1.4,3,0.3,4.2C126.7,48.7,125.8,49,125,49z"/>
</svg>