<svg viewBox="0 0 60 60" fill="none" xmlns="http://www.w3.org/2000/svg">
<path d="M29.5 52H52" stroke="currentColor" stroke-width="3" stroke-linecap="square" stroke-linejoin="round"/>
<path d="M45.4099 13.5901C54.1967 22.3769 54.1967 36.6231 45.4099 45.4099C36.6231 54.1967 22.3768 54.1967 13.5901 45.4099C4.8033 36.6231 4.8033 22.3768 13.5901 13.5901C22.3769 4.8033 36.6231 4.8033 45.4099 13.5901" stroke="currentColor" stroke-width="3" stroke-linecap="round" stroke-linejoin="round"/>
<path d="M29.5 42V44.5" stroke="currentColor" stroke-width="3" stroke-linecap="square" stroke-linejoin="round"/>
<path d="M29.5 14.5V17" stroke="currentColor" stroke-width="3" stroke-linecap="square" stroke-linejoin="round"/>
<path d="M17 29.5H14.5" stroke="currentColor" stroke-width="3" stroke-linecap="square" stroke-linejoin="round"/>
<path d="M44.5 29.5H42" stroke="currentColor" stroke-width="3" stroke-linecap="square" stroke-linejoin="round"/>
<path d="M38.3496 38.3501L40.0996 40.1001" stroke="currentColor" stroke-width="3" stroke-linecap="square" stroke-linejoin="round"/>
<path d="M18.9004 18.8999L20.6504 20.6499" stroke="currentColor" stroke-width="3" stroke-linecap="square" stroke-linejoin="round"/>
<path d="M20.6504 38.3501L18.9004 40.1001" stroke="currentColor" stroke-width="3" stroke-linecap="square" stroke-linejoin="round"/>
<path d="M40.0996 18.8999L38.3496 20.6499" stroke="currentColor" stroke-width="3" stroke-linecap="square" stroke-linejoin="round"/>
<path d="M33.0355 25.9645C34.9882 27.9171 34.9882 31.0829 33.0355 33.0355C31.0829 34.9882 27.9171 34.9882 25.9645 33.0355C24.0118 31.0829 24.0118 27.9171 25.9645 25.9645C27.9171 24.0118 31.0829 24.0118 33.0355 25.9645" stroke="currentColor" stroke-width="3" stroke-linecap="round" stroke-linejoin="round"/>
</svg>
