<svg viewBox="0 0 56 63" fill="none" xmlns="http://www.w3.org/2000/svg">
<path fill-rule="evenodd" clip-rule="evenodd" d="M13.1782 12.0717C13.6909 12.7224 13.5791 13.6655 12.9284 14.1783C11.547 15.2667 10.2863 16.5205 9.17873 17.9277C8.66638 18.5787 7.72331 18.6911 7.07232 18.1788C6.42132 17.6664 6.30893 16.7234 6.82127 16.0724C8.07781 14.4758 9.50737 13.0544 11.0716 11.8219C11.7223 11.3091 12.6655 11.421 13.1782 12.0717Z"/>
<path fill-rule="evenodd" clip-rule="evenodd" d="M44.2113 55.1154C44.6999 55.7844 44.5537 56.7228 43.8847 57.2114C39.3273 60.5401 33.8338 62.5001 27.909 62.5001C24.9892 62.5001 22.178 62.0159 19.528 61.1374C18.7416 60.8767 18.3155 60.0279 18.5762 59.2416C18.8369 58.4552 19.6857 58.0291 20.472 58.2898C22.831 59.0719 25.324 59.5001 27.909 59.5001C33.1555 59.5001 38.0364 57.7679 42.1153 54.7888C42.7842 54.3002 43.7227 54.4464 44.2113 55.1154Z"/>
<path fill-rule="evenodd" clip-rule="evenodd" d="M2.48645 42.5906C3.26481 42.3069 4.12572 42.708 4.40934 43.4864C5.89818 47.5724 8.5145 51.1411 11.9263 53.8202C12.5779 54.3318 12.6914 55.2747 12.1797 55.9263C11.6681 56.5779 10.7252 56.6913 10.0736 56.1797C6.23032 53.1619 3.2746 49.135 1.59062 44.5135C1.30701 43.7351 1.70808 42.8742 2.48645 42.5906Z"/>
<path fill-rule="evenodd" clip-rule="evenodd" d="M3.88839 23.5997C4.66172 23.8968 5.04779 24.7645 4.7507 25.5378C3.72832 28.1992 3.14948 31.0384 3.14948 33.9999C3.14948 34.8283 2.4779 35.4999 1.64948 35.4999C0.821048 35.4999 0.149475 34.8283 0.149475 33.9999C0.149475 30.642 0.806631 27.4389 1.95025 24.462C2.24733 23.6887 3.11507 23.3026 3.88839 23.5997Z"/>
<path fill-rule="evenodd" clip-rule="evenodd" d="M26.5 8C26.5 7.17157 27.1716 6.5 28 6.5C43.2076 6.5 55.5 18.9905 55.5 34.3566C55.5 40.1007 53.7482 45.4071 50.8094 49.8301C50.3509 50.5201 49.4199 50.7078 48.7299 50.2494C48.0399 49.7909 47.8522 48.8599 48.3106 48.1699C50.9398 44.2129 52.5 39.4795 52.5 34.3566C52.5 20.6087 41.5124 9.5 28 9.5C27.1716 9.5 26.5 8.82843 26.5 8Z"/>
<path fill-rule="evenodd" clip-rule="evenodd" d="M32.071 2.99997L27.1213 7.94973L32.071 12.8995L29.9497 15.0208L22.8787 7.94973L29.9497 0.878662L32.071 2.99997Z"/>
<path fill-rule="evenodd" clip-rule="evenodd" d="M48.5 44.5V49.5H54.5V52.5H45.5V44.5H48.5Z"/>
<path fill-rule="evenodd" clip-rule="evenodd" d="M29.5 32C29.5 26.201 34.201 21.5 40 21.5C40.8284 21.5 41.5 22.1716 41.5 23V50C41.5 50.8284 40.8284 51.5 40 51.5H34.6667C33.8383 51.5 33.1667 50.8284 33.1667 50V40.4868H31.7613C30.5125 40.4868 29.5 39.4746 29.5 38.2256V32ZM38.5 24.65C35.0766 25.3449 32.5 28.3715 32.5 32V37.4868H34.6667C35.4951 37.4868 36.1667 38.1584 36.1667 38.9868V48.5H38.5V24.65Z"/>
<path fill-rule="evenodd" clip-rule="evenodd" d="M13 20.5C13.8284 20.5 14.5 21.1716 14.5 22V33.569C14.5 34.8722 15.5564 35.9286 16.8596 35.9286C17.688 35.9286 18.3596 36.6002 18.3596 37.4286V47.5H20.8496V37.7792C20.8496 36.9508 21.5212 36.2792 22.3496 36.2792C23.5373 36.2792 24.5 35.3165 24.5 34.1288V22C24.5 21.1716 25.1716 20.5 26 20.5C26.8284 20.5 27.5 21.1716 27.5 22V34.1288C27.5 36.4516 25.9625 38.4152 23.8496 39.0574V49C23.8496 49.8284 23.178 50.5 22.3496 50.5H16.8596C16.0312 50.5 15.3596 49.8284 15.3596 49V38.7159C13.1296 38.0671 11.5 36.0083 11.5 33.569V22C11.5 21.1716 12.1716 20.5 13 20.5Z"/>
<path fill-rule="evenodd" clip-rule="evenodd" d="M17.5 21C18.3284 21 19 21.6716 19 22.5V29.5C19 30.3284 18.3284 31 17.5 31C16.6716 31 16 30.3284 16 29.5V22.5C16 21.6716 16.6716 21 17.5 21Z"/>
<path fill-rule="evenodd" clip-rule="evenodd" d="M21.5 21C22.3284 21 23 21.6716 23 22.5V29.5C23 30.3284 22.3284 31 21.5 31C20.6716 31 20 30.3284 20 29.5V22.5C20 21.6716 20.6716 21 21.5 21Z"/>
</svg>
