<svg viewBox="0 0 43 54" fill="none" xmlns="http://www.w3.org/2000/svg">
<path fill-rule="evenodd" clip-rule="evenodd" d="M0.5 4.58618C0.5 3.75775 1.17157 3.08618 2 3.08618H12.7759C13.6043 3.08618 14.2759 3.75775 14.2759 4.58618C14.2759 5.41461 13.6043 6.08618 12.7759 6.08618H3.5V50.5H39.2931V6.08618H30.4483C29.6199 6.08618 28.9483 5.41461 28.9483 4.58618C28.9483 3.75775 29.6199 3.08618 30.4483 3.08618H40.7931C41.6215 3.08618 42.2931 3.75775 42.2931 4.58618V52C42.2931 52.8284 41.6215 53.5 40.7931 53.5H2C1.17157 53.5 0.5 52.8284 0.5 52V4.58618Z"/>
<path fill-rule="evenodd" clip-rule="evenodd" d="M11.7068 2C11.7068 1.17157 12.3784 0.5 13.2068 0.5H30.4482C31.2766 0.5 31.9482 1.17157 31.9482 2V6.31034C31.9482 7.13877 31.2766 7.81034 30.4482 7.81034H13.2068C12.3784 7.81034 11.7068 7.13877 11.7068 6.31034V2ZM14.7068 3.5V4.81034H28.9482V3.5H14.7068Z"/>
<path fill-rule="evenodd" clip-rule="evenodd" d="M23.5554 11.5C24.214 11.5016 24.7944 11.9326 24.9865 12.5625L26.5246 17.6071H31V20.6071H25.4138C24.7539 20.6071 24.1715 20.1758 23.979 19.5446L23.539 18.1016L22.1912 22.4446C22.0056 23.0426 21.4681 23.4624 20.843 23.4976C20.2179 23.5329 19.6367 23.1761 19.3851 22.6028L17.6447 18.6372L17.1632 19.7177C16.9221 20.2586 16.3853 20.6071 15.7931 20.6071H11V17.6071H14.8194L16.2851 14.318C16.5268 13.7757 17.0657 13.4269 17.6594 13.4286C18.2532 13.4303 18.7901 13.7821 19.0287 14.3258L20.5171 17.7173L22.1191 12.5554C22.3143 11.9265 22.8969 11.4984 23.5554 11.5Z"/>
<path d="M14 26H11V29.1765H14V26Z"/>
<path d="M14 33.4119H11V36.5883H14V33.4119Z"/>
<path d="M14 40.8235H11V44H14V40.8235Z"/>
<path d="M31 26H17V29.1765H31V26Z"/>
<path d="M31 33.4119H17V36.5883H31V33.4119Z"/>
<path d="M31 40.8235H17V44H31V40.8235Z"/>
</svg>
