<svg viewBox="0 0 60 60" fill="none" xmlns="http://www.w3.org/2000/svg">
<path d="M20 28.9199H17V53.3999H20V28.9199Z" />
<path d="M23.5391 31.0801L17.5391 36.6001L19.5791 38.8201L25.5791 33.3001L23.5391 31.0801Z" />
<path d="M23.5391 40.7998L17.5391 46.3198L19.5791 48.5398L25.5791 43.0198L23.5391 40.7998Z" />
<path d="M13.3422 34.9805L11.2422 37.2005L17.2422 42.7205L19.2822 40.5005L13.3422 34.9805Z" />
<path d="M36 37H33V56H36V37Z" />
<path d="M39.6797 40.7998L33.6797 46.3198L35.7197 48.5398L41.7197 43.0198L39.6797 40.7998Z" />
<path d="M29.54 37.8604L27.5 40.0803L33.5 45.6003L35.54 43.3804L29.54 37.8604Z" />
<path d="M43.92 36.72C44.94 36.72 45.84 35.88 45.84 34.86C45.84 33.84 45 33 43.92 33C42.84 33 42 33.84 42 34.86C42 35.88 42.9 36.72 43.92 36.72Z" />
<path d="M11.92 26.78C12.94 26.78 13.84 25.94 13.84 24.92C13.84 23.9 12.94 23 11.92 23C10.9 23 10 23.84 10 24.86C10 25.88 10.84 26.78 11.92 26.78Z" />
<path d="M32.82 29.12C27.96 29.12 23.52 27.14 21.3 23.9L21 23.06L21.3 22.22C23.58 18.98 28.02 17 32.82 17C37.68 17 42.12 18.98 44.34 22.22V23.96C42.06 27.14 37.68 29.12 32.82 29.12ZM24.48 23.06C26.34 24.98 29.46 26.12 32.82 26.12C36.18 26.12 39.3 24.92 41.16 23.06C39.3 21.14 36.18 20 32.82 20C29.46 20 26.34 21.14 24.48 23.06Z" />
<path d="M51.3597 29C47.6397 29 43.0197 26.96 42.1797 23.9V23.06C43.0197 20.18 46.9797 17.96 51.3597 17.96L52.8597 19.46V27.44L51.3597 29ZM45.2997 23.48C45.8997 24.38 47.7597 25.46 49.8597 25.88V21.14C47.5197 21.44 45.8997 22.52 45.2997 23.48Z" />
<path fill-rule="evenodd" clip-rule="evenodd" d="M50.8332 12.93C43.8163 4.2449 31.65 1.10107 21.0682 5.43141L20.5533 4.17314L21.0682 5.43141C10.0529 9.93909 3.77269 21.3057 5.918 32.7229L6.19501 34.1971L3.24661 34.7512L2.9696 33.277C0.553742 20.42 7.63696 7.68627 19.932 2.6549L20.5001 4.04315L19.932 2.6549C31.7269 -2.1719 45.308 1.31762 53.1668 11.0447L54.1094 12.2115L51.7759 14.0968L50.8332 12.93Z" />
<path fill-rule="evenodd" clip-rule="evenodd" d="M58.7635 22.2556L59.032 23.7314C61.4366 36.9443 54.3934 50.0731 42.088 55.2726C30.2653 60.268 16.6651 56.6419 8.81796 46.5978L7.89447 45.4158L10.2585 43.5688L11.182 44.7509C18.2028 53.7372 30.3594 56.9715 40.9204 52.5091C51.9191 47.8618 58.236 36.1128 56.0805 24.2685L55.812 22.7927L58.7635 22.2556Z" />
<path fill-rule="evenodd" clip-rule="evenodd" d="M55.5 5.5V14.5H46.5V11.5H52.5V5.5H55.5Z" />
<path fill-rule="evenodd" clip-rule="evenodd" d="M7 40.5C6.17157 40.5 5.5 41.1716 5.5 42C5.5 42.8284 6.17157 43.5 7 43.5C7.82843 43.5 8.5 42.8284 8.5 42C8.5 41.1716 7.82843 40.5 7 40.5ZM2.5 42C2.5 39.5147 4.51472 37.5 7 37.5C9.48528 37.5 11.5 39.5147 11.5 42C11.5 44.4853 9.48528 46.5 7 46.5C4.51472 46.5 2.5 44.4853 2.5 42Z" />
</svg>
