<svg viewBox="0 0 60 60" fill="none" xmlns="http://www.w3.org/2000/svg">
<path d="M6.66113 48.3366L13.2645 36.0732M36.3763 20.0364L43.923 10.603M17.9812 31.8282L30.2446 26.1681" stroke="currentColor" stroke-width="3"/>
<circle cx="33.5456" cy="23.3388" r="12.1784" stroke="currentColor" stroke-width="3"/>
<circle cx="5.24502" cy="50.6952" r="2.74502" stroke="currentColor" stroke-width="3"/>
<circle cx="44.8661" cy="8.24502" r="2.74502" stroke="currentColor" stroke-width="3"/>
<circle cx="15.621" cy="33.7152" r="2.74502" stroke="currentColor" stroke-width="3"/>
<circle cx="33.5458" cy="23.3385" r="4.6317" stroke="currentColor" stroke-width="3"/>
<path fill-rule="evenodd" clip-rule="evenodd" d="M43.8189 42.0645L46.7125 40.2164L54.6539 52.6502L51.7603 54.4983L43.8189 42.0645ZM39.6758 41.151L42.2041 39.5362L45.0977 37.6881L47.626 36.0732L49.2408 38.6016L57.1822 51.0353L58.797 53.5636L56.2687 55.1785L54.2032 56.4977L48.3856 54.7879L41.2906 43.6793L39.6758 41.151Z" fill="currentColor"/>
<path d="M40.1475 33.7156L44.3925 39.8473" stroke="currentColor" stroke-width="3"/>
</svg>
