<svg viewBox="0 0 60 60" fill="none" xmlns="http://www.w3.org/2000/svg">
<path d="M32.3498 27.6499L14.6748 45.3249" stroke="currentColor" stroke-width="3" stroke-linecap="round" stroke-linejoin="round"/>
<path d="M16.5826 32.4975L7.92513 30.4525C6.97263 30.2275 6.63763 29.045 7.32763 28.3525L14.2126 21.4675C14.6751 21.005 15.3026 20.74 15.9601 20.735L23.7226 20.6675" stroke="currentColor" stroke-width="3" stroke-linecap="round" stroke-linejoin="round"/>
<path fill-rule="evenodd" clip-rule="evenodd" d="M49.6977 22.4375L51.7177 12.7175C52.2677 10.0725 49.9277 7.73255 47.2827 8.28255L37.5627 10.3025C34.7002 10.8975 32.0752 12.315 30.0102 14.3825L22.0352 22.355C18.9927 25.3975 17.0127 29.3425 16.3877 33.6L16.3602 33.7825C15.9652 36.5 16.8752 39.2425 18.8152 41.185V41.185C20.7552 43.125 23.5002 44.035 26.2177 43.6375L26.4002 43.61C30.6577 42.9875 34.6027 41.005 37.6452 37.9625L45.6177 29.99C47.6852 27.925 49.1027 25.3 49.6977 22.4375V22.4375Z" stroke="currentColor" stroke-width="3" stroke-linecap="round" stroke-linejoin="round"/>
<path d="M33.5 11.7849C39.2775 15.7249 44.275 20.7224 48.215 26.4999" stroke="currentColor" stroke-width="3" stroke-linecap="round" stroke-linejoin="round"/>
<path d="M27.5 43.4176L29.545 52.0751C29.77 53.0276 30.9525 53.3626 31.645 52.6726L38.53 45.7876C38.9925 45.3251 39.2575 44.6976 39.2625 44.0401L39.33 36.2776" stroke="currentColor" stroke-width="3" stroke-linecap="round" stroke-linejoin="round"/>
</svg>
