<svg width="73" height="46" viewBox="0 0 73 46" fill="none" xmlns="http://www.w3.org/2000/svg">
<path d="M65.6956 0H7.30443C3.27982 0 0 3.29438 0 7.35412V38.6459C0 42.6979 3.27982 46 7.30443 46H65.6956C69.7202 46 73 42.6979 73 38.6459V7.35412C73 3.30213 69.7202 0 65.6956 0ZM70.0785 38.6459C70.0785 41.08 68.1139 43.0586 65.6956 43.0586L7.30443 43.0581C4.8868 43.0581 2.92151 41.0801 2.92151 38.6454V7.3536C2.92151 4.91952 4.88614 2.94087 7.30443 2.94087H65.6956C68.1132 2.94087 70.0785 4.91887 70.0785 7.3536V38.6459Z" fill="white"/>
<path d="M62.5 18C59.4717 18 57 20.2407 57 23C57 25.7595 59.4647 28 62.5 28C65.5353 28 68 25.7593 68 23C68 20.2405 65.5353 18 62.5 18ZM62.5 25.3653C61.0617 25.3653 59.8911 24.3011 59.8911 22.9935C59.8911 21.686 61.0617 20.6218 62.5 20.6218C63.9383 20.6218 65.1089 21.686 65.1089 22.9935C65.1089 24.3011 63.9383 25.3653 62.5 25.3653Z" fill="white"/>
<path d="M6.5 19C5.6749 19 5 19.683 5 20.5179V25.4821C5 26.317 5.67494 27 6.5 27C7.3251 27 8 26.317 8 25.4821V20.5179C8 19.683 7.32506 19 6.5 19Z" fill="white"/>
</svg>

