<svg viewBox="0 0 44 60" fill="none" xmlns="http://www.w3.org/2000/svg">
<path fill-rule="evenodd" clip-rule="evenodd" d="M16.1303 36.7589C15.0864 35.74 14.5127 34.241 13.8121 31.9398L13.1629 29.8075L15.3827 30.0091C15.7233 30.04 16.0894 30.0655 16.4595 30.0913C17.1529 30.1397 17.8606 30.189 18.4413 30.2767C19.3949 30.4208 20.4709 30.715 21.3149 31.559C22.7569 33.001 22.335 35.1355 21.0171 36.4534C20.2688 37.2018 19.3943 37.7445 18.3864 37.7586C17.3644 37.7728 16.6128 37.2392 16.1303 36.7589ZM17.3965 33.1711C17.7226 33.9882 17.9731 34.3665 18.2286 34.6148L18.2363 34.6223L18.244 34.6299C18.3001 34.6861 18.342 34.7208 18.3707 34.7417C18.4511 34.7054 18.6237 34.6041 18.8958 34.3321C19.1463 34.0816 19.2048 33.8745 19.2133 33.7814C19.2202 33.7048 19.201 33.6871 19.1947 33.6813C19.1942 33.6809 19.1939 33.6806 19.1936 33.6803C19.0293 33.516 18.7279 33.3541 17.9931 33.2431C17.7972 33.2135 17.6006 33.1905 17.3965 33.1711ZM18.3174 34.7611C18.3174 34.7611 18.3182 34.7609 18.3198 34.7607C18.3182 34.761 18.3174 34.7612 18.3174 34.7611ZM18.4103 34.7673C18.4157 34.7691 18.4185 34.7705 18.4185 34.7708C18.4185 34.771 18.4158 34.7701 18.4103 34.7673Z"/>
<path fill-rule="evenodd" clip-rule="evenodd" d="M33.3826 36.7589C34.4265 35.74 35.0002 34.241 35.7008 31.9398L36.35 29.8075L34.1301 30.0091C33.7896 30.04 33.4235 30.0655 33.0533 30.0913C32.36 30.1397 31.6523 30.189 31.0716 30.2767C30.1179 30.4208 29.042 30.715 28.198 31.559C26.756 33.001 27.1778 35.1355 28.4958 36.4534C29.2441 37.2018 30.1186 37.7445 31.1265 37.7586C32.1485 37.7728 32.9 37.2392 33.3826 36.7589ZM32.1163 33.1711C31.7903 33.9882 31.5398 34.3665 31.2843 34.6148L31.2766 34.6223L31.2689 34.6299C31.2128 34.6861 31.1709 34.7208 31.1422 34.7417C31.0617 34.7054 30.8891 34.6041 30.6171 34.3321C30.3666 34.0816 30.3081 33.8745 30.2996 33.7814C30.2926 33.7048 30.3119 33.6871 30.3182 33.6813C30.3186 33.6809 30.319 33.6806 30.3193 33.6803C30.4836 33.516 30.785 33.3541 31.5198 33.2431C31.7157 33.2135 31.9123 33.1905 32.1163 33.1711ZM31.1955 34.7611C31.1955 34.7611 31.1947 34.7609 31.1931 34.7607C31.1947 34.761 31.1955 34.7612 31.1955 34.7611ZM31.1026 34.7673C31.0972 34.7691 31.0944 34.7705 31.0944 34.7708C31.0943 34.771 31.097 34.7701 31.1026 34.7673Z"/>
<path fill-rule="evenodd" clip-rule="evenodd" d="M16.1303 28.0724C15.0864 27.0535 14.5127 25.5545 13.8121 23.2533L13.1629 21.121L15.3827 21.3226C15.7233 21.3535 16.0894 21.379 16.4595 21.4048C17.1529 21.4531 17.8606 21.5025 18.4413 21.5902C19.3949 21.7343 20.4709 22.0285 21.3149 22.8725C22.7569 24.3145 22.335 26.4489 21.0171 27.7669C20.2688 28.5152 19.3943 29.058 18.3864 29.072C17.3644 29.0863 16.6128 28.5526 16.1303 28.0724ZM17.3965 24.4845C17.7226 25.3017 17.9731 25.68 18.2286 25.9282L18.2363 25.9358L18.244 25.9434C18.3001 25.9996 18.342 26.0343 18.3707 26.0552C18.4511 26.0188 18.6237 25.9176 18.8958 25.6456C19.1463 25.3951 19.2048 25.188 19.2133 25.0949C19.2202 25.0182 19.201 25.0006 19.1947 24.9948C19.1942 24.9944 19.1939 24.9941 19.1936 24.9938C19.0293 24.8295 18.7279 24.6676 17.9931 24.5565C17.7972 24.5269 17.6006 24.504 17.3965 24.4845ZM18.3174 26.0746C18.3174 26.0746 18.3182 26.0744 18.3198 26.0741C18.3182 26.0745 18.3174 26.0746 18.3174 26.0746ZM18.4103 26.0807C18.4157 26.0825 18.4185 26.084 18.4185 26.0843C18.4185 26.0845 18.4158 26.0836 18.4103 26.0807Z"/>
<path fill-rule="evenodd" clip-rule="evenodd" d="M33.3826 28.0724C34.4265 27.0535 35.0002 25.5545 35.7008 23.2533L36.35 21.121L34.1301 21.3226C33.7896 21.3535 33.4235 21.379 33.0533 21.4048C32.36 21.4531 31.6523 21.5025 31.0716 21.5902C30.1179 21.7343 29.042 22.0285 28.198 22.8725C26.756 24.3145 27.1778 26.4489 28.4958 27.7669C29.2441 28.5152 30.1186 29.058 31.1265 29.072C32.1485 29.0863 32.9 28.5526 33.3826 28.0724ZM32.1163 24.4845C31.7903 25.3017 31.5398 25.68 31.2843 25.9282L31.2766 25.9358L31.2689 25.9434C31.2128 25.9996 31.1709 26.0343 31.1422 26.0552C31.0617 26.0188 30.8891 25.9176 30.6171 25.6456C30.3666 25.3951 30.3081 25.188 30.2996 25.0949C30.2926 25.0182 30.3119 25.0006 30.3182 24.9948C30.3186 24.9944 30.319 24.9941 30.3193 24.9938C30.4836 24.8295 30.785 24.6676 31.5198 24.5565C31.7157 24.5269 31.9123 24.504 32.1163 24.4845ZM31.1955 26.0746C31.1955 26.0746 31.1947 26.0744 31.1931 26.0741C31.1947 26.0745 31.1955 26.0746 31.1955 26.0746ZM31.1026 26.0807C31.0972 26.0825 31.0944 26.084 31.0944 26.0843C31.0943 26.0845 31.097 26.0836 31.1026 26.0807Z"/>
<path fill-rule="evenodd" clip-rule="evenodd" d="M16.1303 19.3859C15.0864 18.3669 14.5127 16.868 13.8121 14.5668L13.1629 12.4345L15.3827 12.6361C15.7233 12.667 16.0894 12.6925 16.4595 12.7183C17.1529 12.7666 17.8606 12.8159 18.4413 12.9037C19.3949 13.0478 20.4709 13.3419 21.3149 14.1859C22.7569 15.6279 22.335 17.7624 21.0171 19.0804C20.2688 19.8287 19.3943 20.3715 18.3864 20.3855C17.3644 20.3998 16.6128 19.8661 16.1303 19.3859ZM17.3965 15.798C17.7226 16.6151 17.9731 16.9935 18.2286 17.2417L18.2363 17.2492L18.244 17.2569C18.3001 17.313 18.342 17.3478 18.3707 17.3687C18.4511 17.3323 18.6237 17.2311 18.8958 16.9591C19.1463 16.7086 19.2048 16.5015 19.2133 16.4084C19.2202 16.3317 19.201 16.3141 19.1947 16.3083C19.1942 16.3079 19.1939 16.3076 19.1936 16.3073C19.0293 16.143 18.7279 15.9811 17.9931 15.87C17.7972 15.8404 17.6006 15.8175 17.3965 15.798ZM18.3174 17.3881C18.3174 17.3881 18.3182 17.3879 18.3198 17.3876C18.3182 17.388 18.3174 17.3881 18.3174 17.3881ZM18.4103 17.3942C18.4157 17.396 18.4185 17.3975 18.4185 17.3977C18.4185 17.398 18.4158 17.3971 18.4103 17.3942Z"/>
<path fill-rule="evenodd" clip-rule="evenodd" d="M33.3826 19.3859C34.4265 18.3669 35.0002 16.868 35.7008 14.5668L36.35 12.4345L34.1301 12.6361C33.7896 12.667 33.4235 12.6925 33.0533 12.7183C32.36 12.7666 31.6523 12.8159 31.0716 12.9037C30.1179 13.0478 29.042 13.3419 28.198 14.1859C26.756 15.6279 27.1778 17.7624 28.4958 19.0804C29.2441 19.8287 30.1186 20.3715 31.1265 20.3855C32.1485 20.3998 32.9 19.8661 33.3826 19.3859ZM32.1163 15.798C31.7903 16.6151 31.5398 16.9935 31.2843 17.2417L31.2766 17.2492L31.2689 17.2569C31.2128 17.313 31.1709 17.3478 31.1422 17.3687C31.0617 17.3323 30.8891 17.2311 30.6171 16.9591C30.3666 16.7086 30.3081 16.5015 30.2996 16.4084C30.2926 16.3317 30.3119 16.3141 30.3182 16.3083C30.3186 16.3079 30.319 16.3076 30.3193 16.3073C30.4836 16.143 30.785 15.9811 31.5198 15.87C31.7157 15.8404 31.9123 15.8175 32.1163 15.798ZM31.1955 17.3881C31.1955 17.3881 31.1947 17.3879 31.1931 17.3876C31.1947 17.388 31.1955 17.3881 31.1955 17.3881ZM31.1026 17.3942C31.0972 17.396 31.0944 17.3975 31.0944 17.3977C31.0943 17.398 31.097 17.3971 31.1026 17.3942Z"/>
<path fill-rule="evenodd" clip-rule="evenodd" d="M28.5729 7.08686C28.3856 5.64016 27.532 4.28099 26.1134 2.33835L24.7989 0.538259L23.6263 2.43389C23.4465 2.72471 23.2469 3.03269 23.0451 3.34409C22.6672 3.92741 22.2814 4.52272 22.0027 5.0397C21.5449 5.88859 21.1336 6.92543 21.3012 8.1072C21.5875 10.1263 23.5473 11.0715 25.3927 10.8098C26.4405 10.6612 27.3998 10.2882 28.0166 9.49095C28.642 8.68255 28.6669 7.76114 28.5729 7.08686ZM24.9441 5.94345C25.4014 6.69504 25.5533 7.12258 25.5983 7.47597L25.5996 7.48668L25.6011 7.49737C25.6123 7.57601 25.6149 7.63038 25.6144 7.66586C25.537 7.70832 25.3523 7.78548 24.9714 7.8395C24.6207 7.88924 24.42 7.81162 24.3405 7.76244C24.275 7.72196 24.2725 7.69599 24.2716 7.68743C24.2716 7.68686 24.2715 7.68637 24.2715 7.68595C24.2388 7.45595 24.2905 7.11769 24.6432 6.46358C24.7372 6.28922 24.837 6.11826 24.9441 5.94345ZM25.6619 7.6349C25.6619 7.63488 25.6612 7.63541 25.6601 7.63653C25.6614 7.63547 25.6619 7.63491 25.6619 7.6349ZM25.611 7.71283C25.6092 7.71824 25.6086 7.72134 25.6088 7.72153C25.609 7.72173 25.61 7.71902 25.611 7.71283Z"/>
<path fill-rule="evenodd" clip-rule="evenodd" d="M24.5605 38.8892C23.7321 38.8892 23.0605 38.2176 23.0605 37.3892L23.0605 13.4611C23.0605 12.6326 23.7321 11.9611 24.5605 11.9611C25.389 11.9611 26.0605 12.6326 26.0605 13.4611L26.0605 37.3892C26.0605 38.2176 25.389 38.8892 24.5605 38.8892Z"/>
<path fill-rule="evenodd" clip-rule="evenodd" d="M4.172 42.5C3.80053 42.5 3.5 42.8013 3.5 43.171V56.201C3.5 56.3792 3.5708 56.5501 3.69682 56.6762C3.82285 56.8022 3.99378 56.873 4.172 56.873H8.51362C8.51384 56.873 8.51339 56.873 8.51362 56.873C8.69223 56.8727 8.86418 56.8013 8.98939 56.676C9.11528 56.55 9.186 56.3791 9.186 56.201V43.171C9.186 42.8004 8.88557 42.5 8.515 42.5H4.172ZM0.5 43.171C0.5 41.1427 2.14547 39.5 4.172 39.5H8.515C10.5424 39.5 12.186 41.1436 12.186 43.171V56.201C12.186 57.1743 11.7996 58.1078 11.1117 58.7963C10.4233 59.4854 9.48894 59.8721 8.51638 59.873H4.172C3.19812 59.873 2.26414 59.4861 1.5755 58.7975C0.886871 58.1089 0.5 57.1749 0.5 56.201V43.171Z"/>
<path fill-rule="evenodd" clip-rule="evenodd" d="M37.5368 46.0832C37.5368 46.0832 37.5368 46.0832 37.5368 46.0832L32.2918 50.0157C32.2915 50.0159 32.292 50.0155 32.2918 50.0157C31.2794 50.777 30.0471 51.186 28.784 51.186H23.718C22.8896 51.186 22.218 50.5144 22.218 49.686C22.218 48.8576 22.8896 48.186 23.718 48.186H28.784C29.4006 48.186 29.9987 47.9866 30.4882 47.6184L35.7372 43.6829C36.6596 42.9913 37.8006 42.6556 38.9506 42.7374C40.1003 42.8192 41.1819 43.3129 41.9971 44.1278C42.4421 44.5724 42.7952 45.1003 43.0361 45.6814C43.277 46.2625 43.401 46.8854 43.401 47.5145C43.401 48.1436 43.277 48.7665 43.0361 49.3476C42.7953 49.9285 42.4424 50.4562 41.9977 50.9007L37.4957 55.4027C36.0734 56.8243 34.2623 57.7938 32.2906 58.1888L25.9275 59.4608C24.4488 59.7568 22.9224 59.7208 21.4594 59.3553C21.4594 59.3553 21.4594 59.3553 21.4594 59.3553L15.7034 57.9173L15.7001 57.9165C15.1323 57.7732 14.549 57.7009 13.9634 57.701H10.688C9.85956 57.701 9.18799 57.0294 9.18799 56.201C9.18799 55.3726 9.85956 54.701 10.688 54.701H13.9626C13.9627 54.701 13.9625 54.701 13.9626 54.701C14.7951 54.7008 15.6247 54.8037 16.432 55.0071C16.4326 55.0073 16.4332 55.0074 16.4339 55.0076L22.1866 56.4447C23.2187 56.7026 24.2953 56.7281 25.3385 56.5192L31.7013 55.2472C33.0925 54.9684 34.3708 54.2844 35.3743 53.2814C35.3744 53.2813 35.3743 53.2814 35.3743 53.2814L39.8763 48.7794C40.0425 48.6134 40.1748 48.4157 40.2648 48.1988C40.3547 47.9819 40.401 47.7493 40.401 47.5145C40.401 47.2797 40.3547 47.0472 40.2648 46.8302C40.1748 46.6133 40.043 46.4162 39.8769 46.2502C39.5723 45.9456 39.1674 45.7604 38.7376 45.7299C38.3079 45.6993 37.8815 45.8247 37.5368 46.0832Z"/>
<path fill-rule="evenodd" clip-rule="evenodd" d="M13.8015 41.4652C15.7229 40.1821 17.9828 39.5 20.291 39.5C21.2475 39.5 22.1993 39.617 23.1279 39.8486L28.1052 41.0926C28.1054 41.0927 28.1051 41.0926 28.1052 41.0926C29.1413 41.3514 30.0616 41.9492 30.7189 42.7909C31.3762 43.6327 31.7332 44.67 31.733 45.738C31.733 45.7381 31.733 45.7379 31.733 45.738V46.396C31.733 47.6664 31.2283 48.8847 30.33 49.783C29.4317 50.6813 28.2134 51.186 26.943 51.186H23.718C22.8895 51.186 22.218 50.5144 22.218 49.686C22.218 48.8576 22.8895 48.186 23.718 48.186H26.943C27.4177 48.186 27.873 47.9974 28.2087 47.6617C28.5444 47.326 28.733 46.8707 28.733 46.396V45.738C28.7331 45.3393 28.5998 44.9516 28.3544 44.6373C28.109 44.3231 27.7656 44.0999 27.3787 44.0034L22.402 42.7594C22.402 42.7594 22.4021 42.7594 22.402 42.7594C21.7106 42.587 21.0024 42.5 20.291 42.5C18.5733 42.5 16.8934 43.0077 15.467 43.9604L11.5199 46.5912C10.8305 47.0506 9.89924 46.8643 9.43979 46.1749C8.98034 45.4856 9.16671 44.5543 9.85606 44.0948L13.8015 41.4652C13.8017 41.4651 13.8013 41.4654 13.8015 41.4652Z"/>
</svg>
