<svg viewBox="0 0 80 80" fill="none" xmlns="http://www.w3.org/2000/svg">
<path fill-rule="evenodd" clip-rule="evenodd" d="M26.912 12C23.5166 12 20.7654 14.7512 20.7654 18.1467V45.5971C20.7719 46.2106 20.497 46.8191 19.9695 47.2169C17.1567 49.3379 15.332 52.6624 15.332 56.42C15.332 62.8154 20.5166 68 26.912 68C33.3068 68 38.492 62.8161 38.492 56.4133C38.492 52.6572 36.6685 49.3379 33.8525 47.2087C33.3525 46.8306 33.0587 46.2401 33.0587 45.6133V18.1467C33.0587 14.7512 30.3075 12 26.912 12ZM16.7654 44.6644V18.1467C16.7654 12.5421 21.3075 8 26.912 8C32.5166 8 37.0587 12.5421 37.0587 18.1467V44.659C40.3558 47.4997 42.492 51.6856 42.492 56.4133C42.492 65.0239 35.5172 72 26.912 72C18.3075 72 11.332 65.0246 11.332 56.42C11.332 51.6943 13.4667 47.502 16.7654 44.6644ZM47.998 21.3335H68.6647V25.3335H47.998V21.3335ZM60.333 11.333H47.998V15.333H60.333V11.333ZM47.998 31.333H60.333V35.333H47.998V31.333ZM68.6647 41.3335H47.998V45.3335H68.6647V41.3335ZM28.666 49.9564V28H24.666V49.9564C21.7745 50.8169 19.666 53.4955 19.666 56.6665C19.666 60.5325 22.8 63.6665 26.666 63.6665C30.532 63.6665 33.666 60.5325 33.666 56.6665C33.666 53.4955 31.5575 50.8169 28.666 49.9564ZM26.6347 53.6667H26.6973C28.3398 53.6835 29.666 55.0201 29.666 56.6665C29.666 58.3234 28.3229 59.6665 26.666 59.6665C25.0092 59.6665 23.666 58.3234 23.666 56.6665C23.666 55.0201 24.9923 53.6835 26.6347 53.6667Z" fill="currentColor"/>
</svg>
