<svg viewBox="9 9 41 41" fill="none" fill-rule="evenodd" xmlns="http://www.w3.org/2000/svg">
  <path d="M31.982 18.5207L34.1586 20.095H35.9078L32.8566 17.8882L31.982 18.5207ZM29.8111 20.0359L29.8372 20.072L29.8491 20.0634L29.8927 20.095H22.8351L26.3639 17.5427L29.8111 20.0359ZM29.8491 16.978L32.8566 14.8028L40.1737 20.095H45.4708V28.2129H45.4714V30.7129H45.4708V34.7064H45.4714L45.4714 37.2064H45.4708V45.3222H13.75V20.095H18.5692L26.3639 14.4573L29.8491 16.978ZM39.3643 22.595L39.6304 22.7874L39.7696 22.595H42.9708V28.2129H34.8545V37.2064L42.9708 37.2064V42.8222H16.25V22.595H39.3643ZM42.9708 34.7064V30.7129H37.3545V34.7064L42.9708 34.7064Z"
        fill="none"/>
</svg>
